<mxfile host="app.diagrams.net" agent="Mozilla/5.0 (Windows NT 10.0; Win64; x64) AppleWebKit/537.36 (KHTML, like Gecko) Chrome/136.0.0.0 Safari/537.36" version="27.0.6">
  <diagram name="Page-1" id="mQ9aOLF9NYHXH7sUPv6H">
    <mxGraphModel dx="3143" dy="1171" grid="1" gridSize="10" guides="1" tooltips="1" connect="1" arrows="1" fold="1" page="1" pageScale="1" pageWidth="827" pageHeight="1169" math="0" shadow="0">
      <root>
        <mxCell id="0" />
        <mxCell id="1" parent="0" />
        <mxCell id="_5_J5Y2If2ce0FDsi1l5-146" value="" style="rounded=0;whiteSpace=wrap;html=1;" parent="1" vertex="1">
          <mxGeometry x="-420" y="110" width="1050" height="1650" as="geometry" />
        </mxCell>
        <mxCell id="_5_J5Y2If2ce0FDsi1l5-74" value="Marketing Campaign" style="shape=folder;fontStyle=1;tabWidth=210;tabHeight=30;tabPosition=left;html=1;boundedLbl=1;labelInHeader=1;container=0;collapsible=0;whiteSpace=wrap;fontSize=19;" parent="1" vertex="1">
          <mxGeometry x="-390" y="120" width="1000" height="1500" as="geometry" />
        </mxCell>
        <mxCell id="_5_J5Y2If2ce0FDsi1l5-20" value="Create Campaign" style="html=1;overflow=block;blockSpacing=1;whiteSpace=wrap;ellipse;fontSize=13;spacing=3.8;strokeOpacity=0;fillOpacity=100;rounded=1;absoluteArcSize=1;arcSize=9;fillColor=#fe7070;strokeWidth=1.5;lucidId=~xIeha3OeAVz;" parent="1" vertex="1">
          <mxGeometry x="-310" y="170" width="120" height="90" as="geometry" />
        </mxCell>
        <mxCell id="_5_J5Y2If2ce0FDsi1l5-21" value="Modify Campaign" style="html=1;overflow=block;blockSpacing=1;whiteSpace=wrap;ellipse;fontSize=13;spacing=3.8;strokeOpacity=0;fillOpacity=100;rounded=1;absoluteArcSize=1;arcSize=9;fillColor=#fe7070;strokeWidth=1.5;lucidId=1yIeQ48BPR4-;" parent="1" vertex="1">
          <mxGeometry x="-310" y="275" width="120" height="90" as="geometry" />
        </mxCell>
        <mxCell id="_5_J5Y2If2ce0FDsi1l5-22" value="Import Campaign" style="html=1;overflow=block;blockSpacing=1;whiteSpace=wrap;ellipse;fontSize=13;spacing=3.8;strokeOpacity=0;fillOpacity=100;rounded=1;absoluteArcSize=1;arcSize=9;fillColor=#979ea8;strokeWidth=1.5;lucidId=~yIeRCyaMfPm;" parent="1" vertex="1">
          <mxGeometry x="-310" y="380" width="120" height="90" as="geometry" />
        </mxCell>
        <mxCell id="_5_J5Y2If2ce0FDsi1l5-23" value="Filter Campaigns" style="html=1;overflow=block;blockSpacing=1;whiteSpace=wrap;ellipse;fontSize=13;spacing=3.8;strokeOpacity=0;fillOpacity=100;rounded=1;absoluteArcSize=1;arcSize=9;fillColor=#fe7070;strokeWidth=1.5;lucidId=bEIe1xgmMfHM;" parent="1" vertex="1">
          <mxGeometry x="-310" y="510" width="120" height="90" as="geometry" />
        </mxCell>
        <mxCell id="_5_J5Y2If2ce0FDsi1l5-24" value="Consult Campaign Calender" style="html=1;overflow=block;blockSpacing=1;whiteSpace=wrap;ellipse;fontSize=13;spacing=3.8;strokeOpacity=0;fillOpacity=100;rounded=1;absoluteArcSize=1;arcSize=9;fillColor=#fe7070;strokeWidth=1.5;lucidId=URIeayqkK2Ya;" parent="1" vertex="1">
          <mxGeometry x="-310" y="630" width="120" height="90" as="geometry" />
        </mxCell>
        <mxCell id="_5_J5Y2If2ce0FDsi1l5-25" value="Day" style="html=1;overflow=block;blockSpacing=1;whiteSpace=wrap;ellipse;fontSize=13;spacing=3.8;strokeOpacity=0;fillOpacity=100;rounded=1;absoluteArcSize=1;arcSize=9;fillColor=#fe7070;strokeWidth=1.5;lucidId=hSIeGXaizuwG;" parent="1" vertex="1">
          <mxGeometry x="-115" y="555" width="80" height="60" as="geometry" />
        </mxCell>
        <mxCell id="_5_J5Y2If2ce0FDsi1l5-26" value="" style="html=1;jettySize=18;whiteSpace=wrap;fontSize=13;strokeColor=#3a414a;strokeOpacity=100;strokeWidth=0.8;rounded=0;startArrow=none;endArrow=block;endFill=0;endSize=12;exitX=0.088;exitY=0.783;exitPerimeter=0;entryX=1;entryY=0.5;entryPerimeter=0;lucidId=pUIeytUv-r64;" parent="1" source="_5_J5Y2If2ce0FDsi1l5-25" target="_5_J5Y2If2ce0FDsi1l5-24" edge="1">
          <mxGeometry width="100" height="100" relative="1" as="geometry">
            <Array as="points" />
          </mxGeometry>
        </mxCell>
        <mxCell id="_5_J5Y2If2ce0FDsi1l5-27" value="" style="html=1;jettySize=18;whiteSpace=wrap;fontSize=13;strokeColor=#3a414a;strokeOpacity=100;strokeWidth=0.8;rounded=0;startArrow=none;endArrow=block;endFill=0;endSize=12;exitX=0;exitY=0.5;exitPerimeter=0;entryX=0.987;entryY=0.613;entryPerimeter=0;lucidId=KUIev8AdvZol;" parent="1" source="_5_J5Y2If2ce0FDsi1l5-35" target="_5_J5Y2If2ce0FDsi1l5-24" edge="1">
          <mxGeometry width="100" height="100" relative="1" as="geometry">
            <Array as="points" />
          </mxGeometry>
        </mxCell>
        <mxCell id="_5_J5Y2If2ce0FDsi1l5-28" value="" style="html=1;jettySize=18;whiteSpace=wrap;fontSize=13;strokeColor=#3a414a;strokeOpacity=100;strokeWidth=0.8;rounded=0;startArrow=none;endArrow=block;endFill=0;endSize=12;exitX=0;exitY=0.5;exitPerimeter=0;entryX=0.943;entryY=0.732;entryPerimeter=0;lucidId=~UIeBte6dq6A;" parent="1" source="_5_J5Y2If2ce0FDsi1l5-37" target="_5_J5Y2If2ce0FDsi1l5-24" edge="1">
          <mxGeometry width="100" height="100" relative="1" as="geometry">
            <Array as="points" />
          </mxGeometry>
        </mxCell>
        <mxCell id="_5_J5Y2If2ce0FDsi1l5-29" value="Export Campaign" style="html=1;overflow=block;blockSpacing=1;whiteSpace=wrap;ellipse;fontSize=13;spacing=3.8;strokeOpacity=0;fillOpacity=100;rounded=1;absoluteArcSize=1;arcSize=9;fillColor=#979ea8;strokeWidth=1.5;lucidId=1VIeGqV82j3G;" parent="1" vertex="1">
          <mxGeometry x="-310" y="825" width="120" height="90" as="geometry" />
        </mxCell>
        <mxCell id="_5_J5Y2If2ce0FDsi1l5-32" value="" style="html=1;jettySize=18;whiteSpace=wrap;fontSize=13;strokeColor=#3a414a;strokeOpacity=100;strokeWidth=0.8;rounded=0;startArrow=none;endArrow=block;endFill=0;endSize=12;exitX=0.001;exitY=0.465;exitPerimeter=0;entryX=0.999;entryY=0.535;entryPerimeter=0;lucidId=GYIe1NvaI2Ca;" parent="1" source="_5_J5Y2If2ce0FDsi1l5-30" target="_5_J5Y2If2ce0FDsi1l5-29" edge="1">
          <mxGeometry width="100" height="100" relative="1" as="geometry">
            <Array as="points" />
          </mxGeometry>
        </mxCell>
        <mxCell id="_5_J5Y2If2ce0FDsi1l5-33" value="" style="html=1;jettySize=18;whiteSpace=wrap;fontSize=13;strokeColor=#3a414a;strokeOpacity=100;strokeWidth=0.8;rounded=0;startArrow=none;endArrow=block;endFill=0;endSize=12;exitX=0.122;exitY=0.173;exitPerimeter=0;entryX=0.97;entryY=0.672;entryPerimeter=0;lucidId=KYIeURdQv7Vc;" parent="1" source="_5_J5Y2If2ce0FDsi1l5-31" target="_5_J5Y2If2ce0FDsi1l5-29" edge="1">
          <mxGeometry width="100" height="100" relative="1" as="geometry">
            <Array as="points" />
          </mxGeometry>
        </mxCell>
        <mxCell id="_5_J5Y2If2ce0FDsi1l5-34" value="Consult Campaign Management Board" style="html=1;overflow=block;blockSpacing=1;whiteSpace=wrap;ellipse;fontSize=13;spacing=3.8;strokeOpacity=0;fillOpacity=100;rounded=1;absoluteArcSize=1;arcSize=9;fillColor=#fe7070;strokeWidth=1.5;lucidId=D0IesZ.cylS6;" parent="1" vertex="1">
          <mxGeometry x="-310" y="1095" width="120" height="90" as="geometry" />
        </mxCell>
        <mxCell id="_5_J5Y2If2ce0FDsi1l5-35" value="Week" style="html=1;overflow=block;blockSpacing=1;whiteSpace=wrap;ellipse;fontSize=13;spacing=3.8;strokeOpacity=0;fillOpacity=100;rounded=1;absoluteArcSize=1;arcSize=9;fillColor=#fe7070;strokeWidth=1.5;lucidId=03Ie0xpv14W0;" parent="1" vertex="1">
          <mxGeometry x="-115" y="630" width="80" height="60" as="geometry" />
        </mxCell>
        <mxCell id="_5_J5Y2If2ce0FDsi1l5-36" value="Month" style="html=1;overflow=block;blockSpacing=1;whiteSpace=wrap;ellipse;fontSize=13;spacing=3.8;strokeOpacity=0;fillOpacity=100;rounded=1;absoluteArcSize=1;arcSize=9;fillColor=#fe7070;strokeWidth=1.5;lucidId=g4Ie2LoXiZa1;" parent="1" vertex="1">
          <mxGeometry x="-115" y="705" width="80" height="60" as="geometry" />
        </mxCell>
        <mxCell id="_5_J5Y2If2ce0FDsi1l5-37" value="Year" style="html=1;overflow=block;blockSpacing=1;whiteSpace=wrap;ellipse;fontSize=13;spacing=3.8;strokeOpacity=0;fillOpacity=100;rounded=1;absoluteArcSize=1;arcSize=9;fillColor=#fe7070;strokeWidth=1.5;lucidId=q4IekS3TNCx4;" parent="1" vertex="1">
          <mxGeometry x="-115" y="780" width="80" height="60" as="geometry" />
        </mxCell>
        <mxCell id="_5_J5Y2If2ce0FDsi1l5-38" value="" style="html=1;jettySize=18;whiteSpace=wrap;fontSize=13;strokeColor=#3a414a;strokeOpacity=100;strokeWidth=0.8;rounded=0;startArrow=none;endArrow=block;endFill=0;endSize=12;exitX=0;exitY=0.5;exitPerimeter=0;entryX=0.96;entryY=0.697;entryPerimeter=0;lucidId=C4IewfTGRhPR;" parent="1" source="_5_J5Y2If2ce0FDsi1l5-36" target="_5_J5Y2If2ce0FDsi1l5-24" edge="1">
          <mxGeometry width="100" height="100" relative="1" as="geometry">
            <Array as="points" />
          </mxGeometry>
        </mxCell>
        <mxCell id="_5_J5Y2If2ce0FDsi1l5-39" value="Completed" style="html=1;overflow=block;blockSpacing=1;whiteSpace=wrap;ellipse;fontSize=13;spacing=3.8;strokeOpacity=0;fillOpacity=100;rounded=1;absoluteArcSize=1;arcSize=9;fillColor=#fe7070;strokeWidth=1.5;lucidId=i6IeLHqmWgWb;" parent="1" vertex="1">
          <mxGeometry x="-70" y="1095" width="80" height="60" as="geometry" />
        </mxCell>
        <mxCell id="_5_J5Y2If2ce0FDsi1l5-40" value="Draft" style="html=1;overflow=block;blockSpacing=1;whiteSpace=wrap;ellipse;fontSize=13;spacing=3.8;strokeOpacity=0;fillOpacity=100;rounded=1;absoluteArcSize=1;arcSize=9;fillColor=#fe7070;strokeWidth=1.5;lucidId=k6IeYHDHbwAl;" parent="1" vertex="1">
          <mxGeometry x="-160" y="1215" width="80" height="60" as="geometry" />
        </mxCell>
        <mxCell id="_5_J5Y2If2ce0FDsi1l5-41" value="Running" style="html=1;overflow=block;blockSpacing=1;whiteSpace=wrap;ellipse;fontSize=13;spacing=3.8;strokeOpacity=0;fillOpacity=100;rounded=1;absoluteArcSize=1;arcSize=9;fillColor=#fe7070;strokeWidth=1.5;lucidId=n6IeUA2wQmh8;" parent="1" vertex="1">
          <mxGeometry x="-108" y="1155" width="80" height="60" as="geometry" />
        </mxCell>
        <mxCell id="_5_J5Y2If2ce0FDsi1l5-42" value="Canceled" style="html=1;overflow=block;blockSpacing=1;whiteSpace=wrap;ellipse;fontSize=13;spacing=3.8;strokeOpacity=0;fillOpacity=100;rounded=1;absoluteArcSize=1;arcSize=9;fillColor=#fe7070;strokeWidth=1.5;lucidId=q6IeCGRwEK5n;" parent="1" vertex="1">
          <mxGeometry x="-80" y="1028" width="80" height="60" as="geometry" />
        </mxCell>
        <mxCell id="_5_J5Y2If2ce0FDsi1l5-43" value="" style="html=1;jettySize=18;whiteSpace=wrap;fontSize=13;strokeColor=#3a414a;strokeOpacity=100;strokeWidth=0.8;rounded=0;startArrow=none;endArrow=block;endFill=0;endSize=12;exitX=0.057;exitY=0.732;exitPerimeter=0;entryX=0.943;entryY=0.268;entryPerimeter=0;lucidId=kfJeItDdkmNJ;" parent="1" source="_5_J5Y2If2ce0FDsi1l5-42" target="_5_J5Y2If2ce0FDsi1l5-34" edge="1">
          <mxGeometry width="100" height="100" relative="1" as="geometry">
            <Array as="points" />
          </mxGeometry>
        </mxCell>
        <mxCell id="_5_J5Y2If2ce0FDsi1l5-44" value="" style="html=1;jettySize=18;whiteSpace=wrap;fontSize=13;strokeColor=#3a414a;strokeOpacity=100;strokeWidth=0.8;rounded=0;startArrow=none;endArrow=block;endFill=0;endSize=12;exitX=0;exitY=0.5;exitPerimeter=0;entryX=1;entryY=0.5;entryPerimeter=0;lucidId=ofJeMnc-Ya4C;" parent="1" source="_5_J5Y2If2ce0FDsi1l5-39" target="_5_J5Y2If2ce0FDsi1l5-34" edge="1">
          <mxGeometry width="100" height="100" relative="1" as="geometry">
            <Array as="points" />
          </mxGeometry>
        </mxCell>
        <mxCell id="_5_J5Y2If2ce0FDsi1l5-45" value="" style="html=1;jettySize=18;whiteSpace=wrap;fontSize=13;strokeColor=#3a414a;strokeOpacity=100;strokeWidth=0.8;rounded=0;startArrow=none;endArrow=block;endFill=0;endSize=12;exitX=0.094;exitY=0.209;exitPerimeter=0;entryX=1;entryY=0.5;entryPerimeter=0;lucidId=zfJeMt6LVzBG;" parent="1" source="_5_J5Y2If2ce0FDsi1l5-41" target="_5_J5Y2If2ce0FDsi1l5-34" edge="1">
          <mxGeometry width="100" height="100" relative="1" as="geometry">
            <Array as="points" />
          </mxGeometry>
        </mxCell>
        <mxCell id="_5_J5Y2If2ce0FDsi1l5-46" value="" style="html=1;jettySize=18;whiteSpace=wrap;fontSize=13;strokeColor=#3a414a;strokeOpacity=100;strokeWidth=0.8;rounded=0;startArrow=none;endArrow=block;endFill=0;endSize=12;exitX=0.254;exitY=0.066;exitPerimeter=0;entryX=0.958;entryY=0.7;entryPerimeter=0;lucidId=HfJeP5plZK8B;" parent="1" source="_5_J5Y2If2ce0FDsi1l5-40" target="_5_J5Y2If2ce0FDsi1l5-34" edge="1">
          <mxGeometry width="100" height="100" relative="1" as="geometry">
            <Array as="points" />
          </mxGeometry>
        </mxCell>
        <mxCell id="_5_J5Y2If2ce0FDsi1l5-47" value="Consult Campaign " style="html=1;overflow=block;blockSpacing=1;whiteSpace=wrap;ellipse;fontSize=13;spacing=3.8;strokeOpacity=0;fillOpacity=100;rounded=1;absoluteArcSize=1;arcSize=9;fillColor=#fe7070;strokeWidth=1.5;lucidId=7gJeOixB9azo;" parent="1" vertex="1">
          <mxGeometry x="65" y="1200" width="120" height="90" as="geometry" />
        </mxCell>
        <mxCell id="_5_J5Y2If2ce0FDsi1l5-48" value="" style="html=1;jettySize=18;whiteSpace=wrap;fontSize=13;strokeColor=#3a414a;strokeOpacity=100;strokeWidth=0.8;rounded=1;arcSize=12;edgeStyle=orthogonalEdgeStyle;startArrow=none;endArrow=block;endFill=0;endSize=12;exitX=1;exitY=0.5;exitPerimeter=0;entryX=0.9;entryY=0.2;entryPerimeter=0;lucidId=2hJeMSdbg8uV;" parent="1" source="_5_J5Y2If2ce0FDsi1l5-42" target="_5_J5Y2If2ce0FDsi1l5-47" edge="1">
          <mxGeometry width="100" height="100" relative="1" as="geometry">
            <Array as="points" />
          </mxGeometry>
        </mxCell>
        <mxCell id="_5_J5Y2If2ce0FDsi1l5-49" value="" style="html=1;jettySize=18;whiteSpace=wrap;fontSize=13;strokeColor=#3a414a;strokeOpacity=100;strokeWidth=0.8;rounded=1;arcSize=12;edgeStyle=orthogonalEdgeStyle;startArrow=none;endArrow=block;endFill=0;endSize=12;exitX=1;exitY=0.5;exitPerimeter=0;entryX=0.739;entryY=0.061;entryPerimeter=0;lucidId=DiJeeakiqyTk;" parent="1" source="_5_J5Y2If2ce0FDsi1l5-39" target="_5_J5Y2If2ce0FDsi1l5-47" edge="1">
          <mxGeometry width="100" height="100" relative="1" as="geometry">
            <Array as="points" />
          </mxGeometry>
        </mxCell>
        <mxCell id="_5_J5Y2If2ce0FDsi1l5-50" value="" style="html=1;jettySize=18;whiteSpace=wrap;fontSize=13;strokeColor=#3a414a;strokeOpacity=100;strokeWidth=0.8;rounded=1;arcSize=12;edgeStyle=orthogonalEdgeStyle;startArrow=none;endArrow=block;endFill=0;endSize=12;exitX=1;exitY=0.5;exitPerimeter=0;entryX=0.5;entryY=0;entryPerimeter=0;lucidId=IiJeRkl5QKTp;" parent="1" source="_5_J5Y2If2ce0FDsi1l5-41" target="_5_J5Y2If2ce0FDsi1l5-47" edge="1">
          <mxGeometry width="100" height="100" relative="1" as="geometry">
            <Array as="points">
              <mxPoint x="125" y="1185" />
            </Array>
          </mxGeometry>
        </mxCell>
        <mxCell id="_5_J5Y2If2ce0FDsi1l5-51" value="" style="html=1;jettySize=18;whiteSpace=wrap;fontSize=13;strokeColor=#3a414a;strokeOpacity=100;strokeWidth=0.8;rounded=1;arcSize=12;edgeStyle=orthogonalEdgeStyle;startArrow=none;endArrow=block;endFill=0;endSize=12;exitX=1;exitY=0.5;exitPerimeter=0;entryX=0;entryY=0.5;entryPerimeter=0;lucidId=YiJeCIjxtv8x;" parent="1" source="_5_J5Y2If2ce0FDsi1l5-40" target="_5_J5Y2If2ce0FDsi1l5-47" edge="1">
          <mxGeometry width="100" height="100" relative="1" as="geometry">
            <Array as="points" />
          </mxGeometry>
        </mxCell>
        <mxCell id="_5_J5Y2If2ce0FDsi1l5-52" value="Change Campaign Status" style="html=1;overflow=block;blockSpacing=1;whiteSpace=wrap;ellipse;fontSize=13;spacing=3.8;strokeOpacity=0;fillOpacity=100;rounded=1;absoluteArcSize=1;arcSize=9;fillColor=#fe7070;strokeWidth=1.5;lucidId=5jJeXhSy7r-r;" parent="1" vertex="1">
          <mxGeometry x="-310" y="1365" width="120" height="90" as="geometry" />
        </mxCell>
        <mxCell id="_5_J5Y2If2ce0FDsi1l5-53" value="Manage Social Media Content" style="html=1;overflow=block;blockSpacing=1;whiteSpace=wrap;ellipse;fontSize=13;spacing=3.8;strokeOpacity=0;fillOpacity=100;rounded=1;absoluteArcSize=1;arcSize=9;fillColor=#fe7070;strokeWidth=1.5;lucidId=gkJeoi38itBc;" parent="1" vertex="1">
          <mxGeometry x="-102" y="1335" width="120" height="90" as="geometry" />
        </mxCell>
        <mxCell id="_5_J5Y2If2ce0FDsi1l5-54" value="" style="html=1;jettySize=18;whiteSpace=wrap;fontSize=13;strokeColor=#3a414a;strokeOpacity=100;dashed=1;fixDash=1;strokeWidth=0.8;rounded=1;arcSize=12;edgeStyle=orthogonalEdgeStyle;startArrow=none;endArrow=block;endFill=1;exitX=0.5;exitY=1;exitPerimeter=0;entryX=0.5;entryY=0;entryPerimeter=0;lucidId=OGXeH~bLONrS;" parent="1" source="_5_J5Y2If2ce0FDsi1l5-34" target="_5_J5Y2If2ce0FDsi1l5-52" edge="1">
          <mxGeometry width="100" height="100" relative="1" as="geometry">
            <Array as="points" />
          </mxGeometry>
        </mxCell>
        <mxCell id="_5_J5Y2If2ce0FDsi1l5-55" value="&amp;lt;&amp;lt;extend&amp;gt;&amp;gt;" style="text;html=1;resizable=0;labelBackgroundColor=default;align=center;verticalAlign=middle;fontStyle=1;fontColor=#333333;fontSize=13.3;" parent="_5_J5Y2If2ce0FDsi1l5-54" vertex="1">
          <mxGeometry x="-0.3871924865912073" relative="1" as="geometry" />
        </mxCell>
        <mxCell id="_5_J5Y2If2ce0FDsi1l5-56" value="" style="html=1;jettySize=18;whiteSpace=wrap;fontSize=13;strokeColor=#3a414a;strokeOpacity=100;dashed=1;fixDash=1;strokeWidth=0.8;rounded=0;startArrow=classic;endArrow=none;endFill=1;exitX=0.16;exitY=0.866;exitPerimeter=0;entryX=0.84;entryY=0.134;entryPerimeter=0;lucidId=2IXeyM-Dm51b;startFill=1;" parent="1" source="_5_J5Y2If2ce0FDsi1l5-47" target="_5_J5Y2If2ce0FDsi1l5-53" edge="1">
          <mxGeometry width="100" height="100" relative="1" as="geometry">
            <Array as="points" />
          </mxGeometry>
        </mxCell>
        <mxCell id="_5_J5Y2If2ce0FDsi1l5-57" value="&amp;lt;&amp;lt;extend&amp;gt;&amp;gt;" style="text;html=1;resizable=0;labelBackgroundColor=default;align=center;verticalAlign=middle;fontStyle=1;fontColor=#333333;fontSize=13.3;" parent="_5_J5Y2If2ce0FDsi1l5-56" vertex="1">
          <mxGeometry x="0.15110937109999356" relative="1" as="geometry" />
        </mxCell>
        <mxCell id="_5_J5Y2If2ce0FDsi1l5-63" value="" style="html=1;jettySize=18;whiteSpace=wrap;fontSize=13;strokeColor=#3a414a;strokeOpacity=100;strokeWidth=0.8;rounded=0;startArrow=none;endArrow=block;endFill=0;endSize=12;exitX=0.57;exitY=0.005;exitPerimeter=0;lucidId=EKXeJxy7TWS8;" parent="1" source="_5_J5Y2If2ce0FDsi1l5-59" target="_5_J5Y2If2ce0FDsi1l5-53" edge="1">
          <mxGeometry width="100" height="100" relative="1" as="geometry">
            <Array as="points" />
          </mxGeometry>
        </mxCell>
        <mxCell id="_5_J5Y2If2ce0FDsi1l5-64" value="" style="html=1;jettySize=18;whiteSpace=wrap;fontSize=13;strokeColor=#3a414a;strokeOpacity=100;strokeWidth=0.8;rounded=0;startArrow=none;endArrow=block;endFill=0;endSize=12;entryX=0.5;entryY=1;lucidId=QKXep6PJ_4Cc;entryDx=0;entryDy=0;" parent="1" source="_5_J5Y2If2ce0FDsi1l5-60" target="_5_J5Y2If2ce0FDsi1l5-53" edge="1">
          <mxGeometry width="100" height="100" relative="1" as="geometry">
            <Array as="points" />
          </mxGeometry>
        </mxCell>
        <mxCell id="_5_J5Y2If2ce0FDsi1l5-65" value="" style="html=1;jettySize=18;whiteSpace=wrap;fontSize=13;strokeColor=#3a414a;strokeOpacity=100;strokeWidth=0.8;rounded=0;startArrow=none;endArrow=block;endFill=0;endSize=12;exitX=0.075;exitY=0.236;exitPerimeter=0;entryX=1;entryY=1;lucidId=ZKXeBE5Ak2jA;entryDx=0;entryDy=0;" parent="1" source="_5_J5Y2If2ce0FDsi1l5-61" target="_5_J5Y2If2ce0FDsi1l5-53" edge="1">
          <mxGeometry width="100" height="100" relative="1" as="geometry">
            <Array as="points" />
          </mxGeometry>
        </mxCell>
        <mxCell id="_5_J5Y2If2ce0FDsi1l5-67" value="" style="html=1;jettySize=18;whiteSpace=wrap;fontSize=13;strokeColor=#3a414a;strokeOpacity=100;dashed=1;fixDash=1;strokeWidth=0.8;rounded=0;startArrow=none;endArrow=block;endFill=1;exitX=0.066;exitY=0.252;exitPerimeter=0;entryX=0.934;entryY=0.748;entryPerimeter=0;lucidId=A0Xeq-nAGMTt;" parent="1" source="_5_J5Y2If2ce0FDsi1l5-66" target="_5_J5Y2If2ce0FDsi1l5-47" edge="1">
          <mxGeometry width="100" height="100" relative="1" as="geometry">
            <Array as="points" />
          </mxGeometry>
        </mxCell>
        <mxCell id="_5_J5Y2If2ce0FDsi1l5-68" value="&amp;lt;&amp;lt;extend&amp;gt;&amp;gt;" style="text;html=1;resizable=0;labelBackgroundColor=default;align=center;verticalAlign=middle;fontStyle=1;fontColor=#333333;fontSize=13.3;" parent="_5_J5Y2If2ce0FDsi1l5-67" vertex="1">
          <mxGeometry relative="1" as="geometry" />
        </mxCell>
        <mxCell id="_5_J5Y2If2ce0FDsi1l5-76" value="Marketing Campaign" style="shape=umlActor;verticalLabelPosition=bottom;verticalAlign=top;html=1;outlineConnect=0;" parent="1" vertex="1">
          <mxGeometry x="-510" y="369" width="55" height="110" as="geometry" />
        </mxCell>
        <mxCell id="_5_J5Y2If2ce0FDsi1l5-84" style="rounded=0;orthogonalLoop=1;jettySize=auto;html=1;exitX=0.5;exitY=1;exitDx=0;exitDy=0;entryX=0.417;entryY=0;entryDx=0;entryDy=0;entryPerimeter=0;dashed=1;startArrow=classic;startFill=1;endArrow=none;" parent="1" source="_5_J5Y2If2ce0FDsi1l5-47" target="_5_J5Y2If2ce0FDsi1l5-80" edge="1">
          <mxGeometry relative="1" as="geometry" />
        </mxCell>
        <mxCell id="_5_J5Y2If2ce0FDsi1l5-87" style="rounded=0;orthogonalLoop=1;jettySize=auto;html=1;exitX=0;exitY=0.5;exitDx=0;exitDy=0;entryX=1;entryY=0.5;entryDx=0;entryDy=0;dashed=1;" parent="1" source="_5_J5Y2If2ce0FDsi1l5-94" target="_5_J5Y2If2ce0FDsi1l5-47" edge="1">
          <mxGeometry relative="1" as="geometry" />
        </mxCell>
        <mxCell id="_5_J5Y2If2ce0FDsi1l5-88" style="edgeStyle=orthogonalEdgeStyle;rounded=0;orthogonalLoop=1;jettySize=auto;html=1;exitX=0;exitY=0.5;exitDx=0;exitDy=0;entryX=0.992;entryY=0.611;entryDx=0;entryDy=0;entryPerimeter=0;dashed=1;" parent="1" source="_5_J5Y2If2ce0FDsi1l5-95" target="_5_J5Y2If2ce0FDsi1l5-47" edge="1">
          <mxGeometry relative="1" as="geometry" />
        </mxCell>
        <mxCell id="_5_J5Y2If2ce0FDsi1l5-97" value="" style="edgeStyle=orthogonalEdgeStyle;rounded=0;orthogonalLoop=1;jettySize=auto;html=1;exitX=0;exitY=0.5;exitDx=0;exitDy=0;entryX=0.992;entryY=0.611;entryDx=0;entryDy=0;entryPerimeter=0;dashed=1;" parent="1" source="_5_J5Y2If2ce0FDsi1l5-85" target="_5_J5Y2If2ce0FDsi1l5-95" edge="1">
          <mxGeometry relative="1" as="geometry">
            <mxPoint x="290" y="1255" as="sourcePoint" />
            <mxPoint x="184" y="1255" as="targetPoint" />
          </mxGeometry>
        </mxCell>
        <mxCell id="_5_J5Y2If2ce0FDsi1l5-95" value="&amp;lt;&amp;lt;extend&amp;gt;&amp;gt;" style="text;html=1;resizable=0;labelBackgroundColor=default;align=center;verticalAlign=middle;fontStyle=1;fontColor=#333333;fontSize=13.3;" parent="1" vertex="1">
          <mxGeometry x="229.99685215476202" y="1274.9950886928546" as="geometry" />
        </mxCell>
        <mxCell id="_5_J5Y2If2ce0FDsi1l5-109" style="rounded=0;orthogonalLoop=1;jettySize=auto;html=1;exitX=0.5;exitY=0.5;exitDx=0;exitDy=0;exitPerimeter=0;endArrow=none;startFill=0;" parent="1" source="_5_J5Y2If2ce0FDsi1l5-108" target="_5_J5Y2If2ce0FDsi1l5-23" edge="1">
          <mxGeometry relative="1" as="geometry" />
        </mxCell>
        <mxCell id="_5_J5Y2If2ce0FDsi1l5-142" style="rounded=0;orthogonalLoop=1;jettySize=auto;html=1;exitX=0.5;exitY=0.5;exitDx=0;exitDy=0;exitPerimeter=0;endArrow=none;startFill=0;" parent="1" source="_5_J5Y2If2ce0FDsi1l5-108" target="_5_J5Y2If2ce0FDsi1l5-24" edge="1">
          <mxGeometry relative="1" as="geometry" />
        </mxCell>
        <mxCell id="_5_J5Y2If2ce0FDsi1l5-108" value="Employee" style="shape=umlActor;verticalLabelPosition=bottom;verticalAlign=top;html=1;outlineConnect=0;" parent="1" vertex="1">
          <mxGeometry x="-510" y="860" width="55" height="110" as="geometry" />
        </mxCell>
        <mxCell id="_5_J5Y2If2ce0FDsi1l5-135" style="rounded=0;orthogonalLoop=1;jettySize=auto;html=1;exitX=0.5;exitY=0.5;exitDx=0;exitDy=0;exitPerimeter=0;endArrow=none;startFill=0;" parent="1" source="_5_J5Y2If2ce0FDsi1l5-108" target="_5_J5Y2If2ce0FDsi1l5-22" edge="1">
          <mxGeometry relative="1" as="geometry">
            <mxPoint x="-472" y="470" as="sourcePoint" />
            <mxPoint x="-296" y="523" as="targetPoint" />
          </mxGeometry>
        </mxCell>
        <mxCell id="_5_J5Y2If2ce0FDsi1l5-137" style="rounded=0;orthogonalLoop=1;jettySize=auto;html=1;exitX=0.5;exitY=0.5;exitDx=0;exitDy=0;exitPerimeter=0;endArrow=none;startFill=0;" parent="1" source="_5_J5Y2If2ce0FDsi1l5-108" target="_5_J5Y2If2ce0FDsi1l5-29" edge="1">
          <mxGeometry relative="1" as="geometry">
            <mxPoint x="-462" y="505" as="sourcePoint" />
            <mxPoint x="-287" y="460" as="targetPoint" />
          </mxGeometry>
        </mxCell>
        <mxCell id="_5_J5Y2If2ce0FDsi1l5-138" style="rounded=0;orthogonalLoop=1;jettySize=auto;html=1;endArrow=none;startFill=0;entryX=0;entryY=0.372;entryDx=0;entryDy=0;entryPerimeter=0;exitX=0.5;exitY=0.5;exitDx=0;exitDy=0;exitPerimeter=0;" parent="1" source="_5_J5Y2If2ce0FDsi1l5-108" target="_5_J5Y2If2ce0FDsi1l5-105" edge="1">
          <mxGeometry relative="1" as="geometry">
            <mxPoint x="-480" y="500" as="sourcePoint" />
            <mxPoint x="-277" y="470" as="targetPoint" />
          </mxGeometry>
        </mxCell>
        <mxCell id="_5_J5Y2If2ce0FDsi1l5-139" style="rounded=0;orthogonalLoop=1;jettySize=auto;html=1;exitX=0.5;exitY=0.5;exitDx=0;exitDy=0;exitPerimeter=0;endArrow=none;startFill=0;" parent="1" source="_5_J5Y2If2ce0FDsi1l5-108" target="_5_J5Y2If2ce0FDsi1l5-34" edge="1">
          <mxGeometry relative="1" as="geometry">
            <mxPoint x="-442" y="525" as="sourcePoint" />
            <mxPoint x="-267" y="480" as="targetPoint" />
          </mxGeometry>
        </mxCell>
        <mxCell id="_5_J5Y2If2ce0FDsi1l5-143" style="rounded=0;orthogonalLoop=1;jettySize=auto;html=1;exitX=0.5;exitY=0.5;exitDx=0;exitDy=0;exitPerimeter=0;endArrow=none;startFill=0;edgeStyle=orthogonalEdgeStyle;curved=1;" parent="1" source="_5_J5Y2If2ce0FDsi1l5-108" target="_5_J5Y2If2ce0FDsi1l5-47" edge="1">
          <mxGeometry relative="1" as="geometry">
            <mxPoint x="-465.17" y="915" as="sourcePoint" />
            <mxPoint x="70" y="1270" as="targetPoint" />
            <Array as="points">
              <mxPoint x="-430" y="916" />
              <mxPoint x="-430" y="1290" />
              <mxPoint x="40" y="1290" />
              <mxPoint x="40" y="1270" />
            </Array>
          </mxGeometry>
        </mxCell>
        <mxCell id="_5_J5Y2If2ce0FDsi1l5-145" style="edgeStyle=orthogonalEdgeStyle;rounded=0;orthogonalLoop=1;jettySize=auto;html=1;exitX=0.5;exitY=0.5;exitDx=0;exitDy=0;exitPerimeter=0;entryX=-0.001;entryY=0.202;entryDx=0;entryDy=0;entryPerimeter=0;endArrow=none;startFill=0;" parent="1" source="_5_J5Y2If2ce0FDsi1l5-76" target="_5_J5Y2If2ce0FDsi1l5-74" edge="1">
          <mxGeometry relative="1" as="geometry" />
        </mxCell>
        <mxCell id="_5_J5Y2If2ce0FDsi1l5-75" value="" style="html=1;strokeColor=none;resizeWidth=1;resizeHeight=1;fillColor=none;part=1;connectable=0;allowArrows=0;deletable=0;whiteSpace=wrap;" parent="1" vertex="1">
          <mxGeometry x="-390" y="150" width="1000" height="1162" as="geometry">
            <mxPoint y="30" as="offset" />
          </mxGeometry>
        </mxCell>
        <mxCell id="_5_J5Y2If2ce0FDsi1l5-59" value="Facebook" style="html=1;overflow=block;blockSpacing=1;whiteSpace=wrap;ellipse;fontSize=13;spacing=3.8;strokeOpacity=0;fillOpacity=100;rounded=1;absoluteArcSize=1;arcSize=9;fillColor=#fe7070;strokeWidth=1.5;lucidId=8JXeW5d-ejtA;" parent="1" vertex="1">
          <mxGeometry x="-190" y="1455" width="98" height="64" as="geometry" />
        </mxCell>
        <mxCell id="_5_J5Y2If2ce0FDsi1l5-60" value="Instagram" style="html=1;overflow=block;blockSpacing=1;whiteSpace=wrap;ellipse;fontSize=13;spacing=3.8;strokeOpacity=0;fillOpacity=100;rounded=1;absoluteArcSize=1;arcSize=9;fillColor=#fe7070;strokeWidth=1.5;lucidId=8JXeqypOJg3c;" parent="1" vertex="1">
          <mxGeometry x="-80" y="1470" width="98" height="64" as="geometry" />
        </mxCell>
        <mxCell id="_5_J5Y2If2ce0FDsi1l5-61" value="X (Twitter)" style="html=1;overflow=block;blockSpacing=1;whiteSpace=wrap;ellipse;fontSize=13;spacing=3.8;strokeOpacity=0;fillOpacity=100;rounded=1;absoluteArcSize=1;arcSize=9;fillColor=#fe7070;strokeWidth=1.5;lucidId=kKXe.rxRQ94f;" parent="1" vertex="1">
          <mxGeometry x="30" y="1455" width="98" height="64" as="geometry" />
        </mxCell>
        <mxCell id="_5_J5Y2If2ce0FDsi1l5-80" value="Manage Emails" style="html=1;overflow=block;blockSpacing=1;whiteSpace=wrap;ellipse;fontSize=13;spacing=3.8;strokeOpacity=0;fillOpacity=100;rounded=1;absoluteArcSize=1;arcSize=9;fillColor=#fe7070;strokeWidth=1.5;lucidId=gkJeoi38itBc;" parent="1" vertex="1">
          <mxGeometry x="80" y="1340" width="120" height="90" as="geometry" />
        </mxCell>
        <mxCell id="_5_J5Y2If2ce0FDsi1l5-66" value="Consult product" style="html=1;overflow=block;blockSpacing=1;whiteSpace=wrap;ellipse;fontSize=13;spacing=3.8;strokeOpacity=0;fillOpacity=100;rounded=1;absoluteArcSize=1;arcSize=9;fillColor=#fe7070;strokeWidth=1.5;lucidId=RZXeths-1Erw;" parent="1" vertex="1">
          <mxGeometry x="240" y="1350" width="120" height="90" as="geometry" />
        </mxCell>
        <mxCell id="_5_J5Y2If2ce0FDsi1l5-69" value="Apply Discount" style="html=1;overflow=block;blockSpacing=1;whiteSpace=wrap;ellipse;fontSize=13;spacing=3.8;strokeOpacity=0;fillOpacity=100;rounded=1;absoluteArcSize=1;arcSize=9;fillColor=#fe7070;strokeWidth=1.5;lucidId=Y0XeASHuEk6s;" parent="1" vertex="1">
          <mxGeometry x="270" y="1510" width="120" height="90" as="geometry" />
        </mxCell>
        <mxCell id="_5_J5Y2If2ce0FDsi1l5-70" value="" style="html=1;jettySize=18;whiteSpace=wrap;fontSize=13;strokeColor=#3a414a;strokeOpacity=100;dashed=1;fixDash=1;strokeWidth=0.8;rounded=0;startArrow=none;endArrow=block;endFill=1;exitX=0.5;exitY=0;exitPerimeter=0;entryX=0.567;entryY=0.978;entryPerimeter=0;lucidId=z1Xe6j_ofP56;entryDx=0;entryDy=0;" parent="1" source="_5_J5Y2If2ce0FDsi1l5-69" target="_5_J5Y2If2ce0FDsi1l5-66" edge="1">
          <mxGeometry width="100" height="100" relative="1" as="geometry">
            <Array as="points" />
          </mxGeometry>
        </mxCell>
        <mxCell id="_5_J5Y2If2ce0FDsi1l5-71" value="&amp;lt;&amp;lt;extend&amp;gt;&amp;gt;" style="text;html=1;resizable=0;labelBackgroundColor=default;align=center;verticalAlign=middle;fontStyle=1;fontColor=#333333;fontSize=13.3;" parent="_5_J5Y2If2ce0FDsi1l5-70" vertex="1">
          <mxGeometry x="0.11014520566912456" relative="1" as="geometry" />
        </mxCell>
        <mxCell id="_5_J5Y2If2ce0FDsi1l5-85" value="Consult Links" style="html=1;overflow=block;blockSpacing=1;whiteSpace=wrap;ellipse;fontSize=13;spacing=3.8;strokeOpacity=0;fillOpacity=100;rounded=1;absoluteArcSize=1;arcSize=9;fillColor=#fe7070;strokeWidth=1.5;lucidId=RZXeths-1Erw;" parent="1" vertex="1">
          <mxGeometry x="380" y="1320" width="120" height="90" as="geometry" />
        </mxCell>
        <mxCell id="_5_J5Y2If2ce0FDsi1l5-86" value="Consult Images" style="html=1;overflow=block;blockSpacing=1;whiteSpace=wrap;ellipse;fontSize=13;spacing=3.8;strokeOpacity=0;fillOpacity=100;rounded=1;absoluteArcSize=1;arcSize=9;fillColor=#fe7070;strokeWidth=1.5;lucidId=RZXeths-1Erw;" parent="1" vertex="1">
          <mxGeometry x="350" y="1205" width="120" height="90" as="geometry" />
        </mxCell>
        <mxCell id="_5_J5Y2If2ce0FDsi1l5-30" value="Export csv file" style="html=1;overflow=block;blockSpacing=1;whiteSpace=wrap;ellipse;fontSize=13;spacing=3.8;strokeOpacity=0;fillOpacity=100;rounded=1;absoluteArcSize=1;arcSize=9;fillColor=#979ea8;strokeWidth=1.5;lucidId=2WIeNPYyiRF.;" parent="1" vertex="1">
          <mxGeometry x="-20" y="825" width="120" height="90" as="geometry" />
        </mxCell>
        <mxCell id="_5_J5Y2If2ce0FDsi1l5-31" value="Export XLSX file" style="html=1;overflow=block;blockSpacing=1;whiteSpace=wrap;ellipse;fontSize=13;spacing=3.8;strokeOpacity=0;fillOpacity=100;rounded=1;absoluteArcSize=1;arcSize=9;fillColor=#979ea8;strokeWidth=1.5;lucidId=oXIemN2lJ.WZ;" parent="1" vertex="1">
          <mxGeometry x="-140" y="880" width="120" height="90" as="geometry" />
        </mxCell>
        <mxCell id="_5_J5Y2If2ce0FDsi1l5-94" value="&amp;lt;&amp;lt;extend&amp;gt;&amp;gt;" style="text;html=1;resizable=0;labelBackgroundColor=default;align=center;verticalAlign=middle;fontStyle=1;fontColor=#333333;fontSize=13.3;" parent="1" vertex="1">
          <mxGeometry x="279.996852154762" y="1249.9950886928546" as="geometry" />
        </mxCell>
        <mxCell id="_5_J5Y2If2ce0FDsi1l5-104" value="" style="rounded=0;orthogonalLoop=1;jettySize=auto;html=1;exitX=0;exitY=0.5;exitDx=0;exitDy=0;entryX=1;entryY=0.5;entryDx=0;entryDy=0;dashed=1;endArrow=none;startFill=0;" parent="1" source="_5_J5Y2If2ce0FDsi1l5-86" target="_5_J5Y2If2ce0FDsi1l5-94" edge="1">
          <mxGeometry relative="1" as="geometry">
            <mxPoint x="370" y="1195" as="sourcePoint" />
            <mxPoint x="185" y="1245" as="targetPoint" />
          </mxGeometry>
        </mxCell>
        <mxCell id="_5_J5Y2If2ce0FDsi1l5-105" value="Print Cost Report" style="html=1;overflow=block;blockSpacing=1;whiteSpace=wrap;ellipse;fontSize=13;spacing=3.8;strokeOpacity=0;fillOpacity=100;rounded=1;absoluteArcSize=1;arcSize=9;fillColor=#fe7070;strokeWidth=1.5;lucidId=~xIeha3OeAVz;" parent="1" vertex="1">
          <mxGeometry x="-310" y="960" width="120" height="90" as="geometry" />
        </mxCell>
        <mxCell id="_5_J5Y2If2ce0FDsi1l5-136" style="rounded=0;orthogonalLoop=1;jettySize=auto;html=1;endArrow=none;startFill=0;exitX=0.5;exitY=0.5;exitDx=0;exitDy=0;exitPerimeter=0;" parent="1" source="_5_J5Y2If2ce0FDsi1l5-108" edge="1">
          <mxGeometry relative="1" as="geometry">
            <mxPoint x="-480" y="490" as="sourcePoint" />
            <mxPoint x="-310" y="320" as="targetPoint" />
          </mxGeometry>
        </mxCell>
        <mxCell id="_5_J5Y2If2ce0FDsi1l5-147" value="Generate Content" style="html=1;overflow=block;blockSpacing=1;whiteSpace=wrap;ellipse;fontSize=13;spacing=3.8;strokeOpacity=0;fillOpacity=100;rounded=1;absoluteArcSize=1;arcSize=9;fillColor=#fe7070;strokeWidth=1.5;lucidId=~xIeha3OeAVz;" parent="1" vertex="1">
          <mxGeometry x="470" y="775.7587128712871" width="120" height="90" as="geometry" />
        </mxCell>
        <mxCell id="_5_J5Y2If2ce0FDsi1l5-148" style="rounded=0;orthogonalLoop=1;jettySize=auto;html=1;exitX=0;exitY=0.5;exitDx=0;exitDy=0;entryX=1;entryY=0.5;entryDx=0;entryDy=0;endArrow=none;startFill=0;" parent="1" source="_5_J5Y2If2ce0FDsi1l5-149" edge="1">
          <mxGeometry relative="1" as="geometry">
            <mxPoint x="590" y="821" as="targetPoint" />
          </mxGeometry>
        </mxCell>
        <mxCell id="_5_J5Y2If2ce0FDsi1l5-149" value="" style="shape=image;verticalLabelPosition=bottom;labelBackgroundColor=default;verticalAlign=top;aspect=fixed;imageAspect=0;image=data:image/png,iVBORw0KGgoAAAANSUhEUgAAAoAAAADtCAYAAAAvOMSOAAAABGdBTUEAALGPC/xhBQAAACBjSFJNAAB6JgAAgIQAAPoAAACA6AAAdTAAAOpgAAA6mAAAF3CculE8AAAABmJLR0QA/wD/AP+gvaeTAAAAB3RJTUUH6AYXEy4gWkSdBAAAWZ5JREFUeNrtnXeYFFXWxt9zqycQRcKQcdHFhBlzxFWBAQZ0FdR1dVe/FRQkZ0G3TEjOQUzrukbGCBLVlXUNrBkVEyAqMAwz5Dgz3VXn+2MGmNChqruqu7r7/J7Hx6anuurec869961bp+4FBEEQBCHF0PW1dcUKghAaJSYQBEEQUo2skpJmYgVBEAEoCIIgpBEaoblYQRBEAAqCIAhpBJmGCEBBEAEoCIIgpBOsyQygIIgAFARBENJLADJdKFYQBBGAgiAIQpowceQXLYipg1hCEEQACoIgCGmCqYwTQdx2QZ/PMsQagiACUBAEQUgDiHASAN/+RkZbsYYgiAAUBEEQ0gGmUxhAAOpkMYYgiAAUBEEQ0gAivhwACLhErCEIIgAFQRCEFGf8mP81AnBmxT+vFIsIgghAQRAEIcXRoK6sNLadM13/soFYRRBEAAqCIAgpDIP+cPQztECZIY+BBUEEoCAIgpCq6DorAN0AOioI2ewmlhEEEYCCIAhCipJV8tkfALSp+i3dOGvAuiyxjiCIABQEQRBSEaK/Bvm24aG6u2QWUBBEAAqCIAiphq6vrk/AdQDAlb5nAAS6VSwkCCIABUEQhBQjqyTjJgC1j35Dlf/cdfLwNTliJUEQASgIgiCkCAt7LdRAPCzMIZnwlQ0VSwmCCEBBEAQhRdhwwu97Azgx3DEM3DN+zBdNxFqCIAJQEARBSHIYTCAeUyHyKgu+qp8JdXwIDBSLCUI5JCYQBEEQkpXxYz67lkCvH5Z8VGOAq/Q9Y6+v1N926PSLd4rlhHRHZgAFQRCEpETX12YS0wTUkH4hqW9kZT4klhMEEYCCIAhCkpJVUjKCCSfZ+Q2D75o6cvWFYj1BBKAgCIIgJBkPj/2kNRPGhBd71T6XTxIqQ2lzFvZaqIkVBRGAgiAIgpBEEGuzQKgTVOhVPTLYzzv8cvxx/cSKQlq3ITGBIAiCkEw8MvbzPmAsoEqKjypJwAgvglR85hJWuGjk+PO/EosKIgAFQRAEwcM8eN9X7TXD/ARAbQLHIgABYJ1plnUYNenSfWJZId2QR8CCIAhCUjB5+Jo6mmEuRJUt36xTKQ/wsExsp7TMx8WygghAQRAEQfAgDKaSTONJBk4NLuiqCb0qnynciW+aNOrT/mJhQQSgIAiCIHiMR8Z8OYWAmyIfaT+ziYhnTR39v15iZUEEoCAIgiB4hIfHfDkShKFOiL1QYyGDnps0enUnsbaQLshLIIIgCIJnefDeL/9KwNMEUPDt3qJ4EeToPw+/DHL4b3uVyVcNnXTBZ2J5IdWRGUBBEATBm+Jv7Ff3EPAUAAqb42cjD5DDX7K+qfCezAQKIgAFQRAEIc4wmB6490sdzLOjG6diebhFdRVo8bRRn/QWTwipjDwCFgRBEDyDrq/N1Pz+x5j59uqDVLXHtVW/j209wGDnNMA8aNjEC+eKVwQRgIIgCILgEg+P/aa1AeMlAi4GB8v3qybiYhGAFf+s/mC4+u8J+FdW9sF+/fUr94uHBBGAgiAIguAgD4xdkwfwMwAaHp2hCyH2gok1tiIUq33PEc55VCf+6FPce/D4C78WTwkiAAVBEAQhRnR9bV2UGeNB5j1UaUwiuwKwiqCrKeJiEYAV3x8k5pF7al0wX9fJFM8JIgAFQRAEIQruH7smTxHmgNEmqFhjqwLQjTzAYL8FwPiSmfsNm3ThavGgIAJQEARBECyij/nqRCiaxUDnsILL7TzACC+ChCmToQgLMuEf12/CZbvEo4IIQEEQBEEIwbhxa9pqTKMBvgOAL6JY4/AirsbvXcwDDCFK94FpHvuNSUOnX7xTPCyIABQEQRCEo8LvJABjFdPN5cIvxOPV6t97Lw8w1KzkPiLM8ft904ZPPXe7eFwQASgIgiCkJaNGfXZMZmZ2T7B5K4CrAFDVGbpYBFei8wBDnrOUCG8z+Nnd2ce8qevtyyQSBBGAgiAIQkqj62ublRncUTFfB6AHgGyXZtwQrzxAqrZ5nA1Rup2IXyKmpapWyX9lHUFBBKAgCIKQ9AwYsC6rXiN/O/Ib7Rl0OSl0BONU5x+5WhBxlX9vKQ+Qg1zD1VnJAECfEfMqVvwBTPyws07Zr7p+ZUAiSRABKAiCIHgGXX/PV1LSqF4gO7N1pmk0MZiaEJvtQHQRAacAaENgFWnGrYY44jDCKtj3MecBuv4iiDWxyTXOWQZgI4G/IqJPYJqbWNFWYhRDcZG8XSyIABQEQRA8Q58+n2U0alGnLQLmySDzRMV0GgN/ANDa0oxbKuQB2piVrCQAmYC1AL1PxN+BzZ8Mwo8DJ16yiapYRRBEAAqCIAhJwrhx37VjMq4C6A9gziWgrnOCyzt5gJVfBLFwXAHYXArCu6xp7w0ef+E2iRRBBKAgCIKQkuj6xmy/f18eEfUBcFX5Fm9pkwdYCsLbAD+7O7v0dcnzE0QACoIgCGkoBr8+3jDUnWCzH4D6QIrmARJ+VYzpRpn5L1kUWhABKAiCIAgARo78oV5mZukdBBpFjOaWRFw4wYVELwh95PufGZjlO7jzsYGzu5aKpwURgIIgCIJQjeHD19SplaXuJvB9AOonx4sgQb//GWyO2Vvrwld0nUzxrCACUBAEQRAioOtrm5n+wCQF/PnwCimOvnkbRABGFHXWZgHLAH7MDNS6d8SUMw+IJwURgIIgCIJgVwiO/fpygOcx0D6sCPRGHuBSw9AGjpx87gbxnCACUBAEQRBiEYH6xmz2750IYKBH8wBLweaoYRMvmCVr9gkiAAVBEATBQe4f+9V1CvQUgGM9lAf4E4FuGjbhvC/FQ0IqocQEgiAIghd48JGzXodB5wL4xvqvop/H4OqfqZpMZH7FMMvOFfEnpCIyAygIgiB4Cl3/sgH86k2AL09gHuC8A9nnDZA3fAURgIIgCIIQJ2YNWJe1s/7BfxG4V5UBKw55gARMHDHhvNHiBSGVkUfAgiAIgucYOLtd6ak//XgzA89Ed4ao5jcYTP1E/AkiAAVBEAQhQfTO722c+tNPfyPmV1wQexWKr9JnpjEjJ547XywviAAUBEEQhASLQDMz8xYCvVP54S+HEnHVP1P4YyoJyDmjJpw7USwupAuSAygIgiB4Hl3/sgH56X1inB7biyCVvq9AMT83YsK5t8kaf0I6ITOAgiAIQhIIwLN3cyDQHYSd1n8VeY6Dga8PZu+/U8SfIAJQEARBELwoAiee+xsR9Y1W7AVhn9K4t65fWSLWFUQACoIgCIJHue/hM19hYD7gQB4g4a5RD5/3o1hVEAEoCIIgCB6HMxsMJeDb6M9AAPHjo8ef+4JYUxABKAiCIAhJgK63LSGiuxHshd5gYq/md9tKM32jxJKCCEBBEARBSCLGPXLWB0T0XGSxF0T+kTlU18/eLVYURAAKgiAIQrINYKyNYOCIkLOSE2gS3h81vsOLYj1BBKAgCIIgJCFjx5++DUQPWTq4fHLQ8AVwlyz5IggiAAVBEIQkxszYNQ9EhVbUH4CXRk3q8L1YTRBkJxDL5M7aUZ+NsoY+FchgaPUBwGBSGrEJAAHSAj4D+zSfKsnyl+zKH9r6kFhNEATBfR4e88VoJnr06KAWdKcQE0yn3/voOd+JxQRBBCAAoJe+NnNfg/ong9SpBDqBCK0ZaAPgOACNATQE4Av9vhkFM+YhBnYRqAjgTUT41WRsAuFnAN8VZTVb93lf8ov1BUEQYkPXV9fXyrJ+BdCgQuwFGeR44djxHW5MdFnnD/8wp8SXWbfMLC0eNenSfeI9IRa+vnv0saUoPdZfht0XPzV9p53fpp0A7LCAM5oe2naOqcwLFHAhE84Cox0AX8Qfc2Qz2jCoH4z1DKxRzP+D0j45UP/gF6tubysr0guCINjkoXu/fBjA2DAC8Myx4zt8Hc8yMZhmjF59BTF6ENCNgbYEZBwtGx8CsBYmFvtYvdFvyoVfiyeFcKz+27AOmqLrGOgO8MkEzqokUMoIWE/gt0wDi857asaHaS0AdZ3Vx423nkWMTmB0IuAiANkxtGinBGCwc/kB/pRB7yiT3yms03y1zBIKgiBE5uGxXxzHTD8DUDUFIP1v7PizL4xneaaN+OgKUmoSgPPDPJY+MhZUfP+ayWr0oMkXrhOPCpX5qM+o0xV4IoFzj8Y3V0l5KP/34ZhiEON9RRh+9hMzP00bAdhhAWc0DWy9yjRwPRF6gtHEwVu6sFqaHDnXkTPuZ2AFM7/uL81+653RDfdIMxAEQQjOQ2O+eBdEf6guuJio/7hHzp4XjzIs6PNZxsFjA7MZ6BtU7FUZJyoGcK7yfRmx2f+eyZc+KR4VGKBP+owaA/BDAKuqscSo/u+jsc8VNxbMYIw/58lZ91E11ZE6ApCZOs/eeqkiuh3gawEca1VoJUwA2itbGQHvMNNzBxscel0eFQuCIFTl4TFf3MpEz1YTgGXE/hb3PnrBDrev/+jo/x6bhcxXwPyH6uNBcAFY8T0HE4b0aP9JF42VJWvSl6UDBmQ1LK3zBMC3UrBZvrACEOWzgEcF4fPZuxvd0T5fLzt8fl+yG6jr3KJm4MDtPKfgdhDaeUCtu6WqMxnoCuKutffU2t11xtaXTODp5YObfyrNRBAEAQhkma9qZdocBurT0SFxydg4iD9dX5uZWbL/DQCXh54kYBt/4jFzR3x0EJPxsHg2PTks/mrqDKoQfTUDJ7QGoVtKGuzwA7j98DdJuw5gl3mbzsidveVp0/T/wszjgTiJP0/MmXIDAHcp4JOuM7au7jqz8E+99LWZ0lwEQUhndP3cgwAtrdplm6/F49r1SvbPPSr+HBooCA/MHvnRteLZ9OPjvqNHAbjVYWHy1y/uHDjUU3LGDp1nFVymiO9j4Jrg1Q9RJdcfAzv2Iki0qnQrgWdqpb55i0Y1kaUFBEFISx4a8+WdIDx++NFXIKC11iedudnNa04bvboTg1ZU6f85zEsfiJgHePR7oLgW+IT/kyVj0obVfce1Yza+I7DvqFDgamtc2soDrPy3MsMInHLe0/N/TpoZwE4zt1ycO3vLYiJ+v7r48wZRKjnnJHhzBk3wZxobu07fql87fVcDaUaCIKQbBmvvVvrnOrfFH4PJBD0Y/UgQcRBocogxRDybPjAbD6JGih5FIRqC/iZT03y6s/LDJbrNLTjFMDEF4K7WmxA5ps/saT3XXwSJXPujqwrsIMKD22o1nS9LyQiCkE48fO+XGxn4HZH5xLhHOvRx81pT7119JZv0b6reIwedATzaSUdYDgaVZgAB8K6M3dlN+z5+rvTlKc4HfUa10aA2AlD2Zv1C/I2DLhVjKi3QxrMzgHkLChp3mb1lrmHy15HEX9whl/WcA4qUgEZgzGx6sOibrjMKu0uzEgQhXWDCe+Wf1H9cv5apukU1UNgbdI71H1t6kXg29VFQuQAp+zFk61hlBnxdvCcAmSl3zpY7/H7+EUA/OPWmcrrseVKjnnwSMRZ3m174Ro/ZxS2keQmCkAYK8BsAIMbaOFytc9ABJsKDqMifqeqtPXMXcWxaDOJdQgVTuMmlmtmldOR/wV9bYG8JwNxZv53QZV7BSgaeQvn+u9bbuzd6HU+K04pS9TQCxnfdpxUO0nVW0sgEQUhdAcg/AmB/ZuZ6d/tWJgAnWhV3sQwCisqvI6Q8J0aOk5jzAAGoE5VHGivlzinow0r7GoyrYxdGsm5mCI5hwoxP629b2Xl6cXMxhyAIqYjB5k8ACnS9/X43rzNh9AcNANhcgiu6gY0ZOeLZNLh3AeVYVTMcJpY4TPxxeUDlJFwA5s7a3Kp81o8XAKidNF5KgjzAMGW/ygfj827Tt10tzU0QhFTj1A0bNhL4W7ev4/NlNnBU7FHYwb6heDb1IaCB/diJYmaQqGFCBWCnOZu7s6I1VWb9EijaUimCLNAc4BVdZxSOAzNJsxMEIVXond/bYJDrL4BoB4w9YTteGxMFkfMAebd4Ni3Yw2HEXbR5gEHYnRgBWP6ixygFehM2c/2sNqbE4c3HzyFKpYjxULcZRS/nLSioLe1OEIRUgUGb3L7GkOkX7WKgzLqgC/9oLvyNPRWKV9OCbRECwVq8VPtNkLgrjLsA7DxtU8PcuQUrGJgAK1vRyaxdPLrKXsZBtarHjG1Npe0JgpASXaoyXRdMBGIA66P5pe1e2uR14tW0uHNZV/OrsDc6UcQdAaB1vnjWq/PcTb8nVksY8XibiaNVVQGAfgF4A4PXg2gDwBuUoW0zVKDEZ2TsMzVz3yFNO7Sqf85+ALh6wc5jsox9yijNPEZTVNdU3JpMNGNCa2JuDdAZANoDqOPROoOA8ww238+bWXDN4kEtfpNWKAhCUo+jpLbG6ULLQXxq+EHXVo520MM1qOXi1XS4ccFyZup5dDxnm4Fz9DfhFIFJWB43Adh1TsHlJvNrABol1ro17LmVgA9M4ANW+KB0e/OvV+kUsHPKd/o2PJwHsqvi/zWSj3Wd1cf1i4/3KeNsJnQEcCWAU+JYTys/OtE06b9dpxZfs3RYk5+kKQqCkKz4AqVxeWRqasZbmqmGhux4bfTFlQfsap93aXsyPxKvpj4GB5Yq+EwGFIUQd9ameqoJwqpxaPqUtiwuDx67zCm4DuAXAWRFd4dlX/tU/1SJUjCtZOA1zVDvLxnS9OdEObrz9OLmmvJfDVB3AF3AqO+M8gttN4sO32pqdNmygU03SHMUBCEZYTBVPKJ1/TpTRn/2KYE7HP7G2rZwHKRfrvgt1/heHzDpkgfEq+nBh33GvkTgGyNvA2dli7hKAcUVW8YRnuvw+KxbXReAuXM338ZMTyHWHT1szqBX+1QG8EqwyvdnZb1ZacbOM/TS12YebHDslYC6nsE3AtGKQUcEIAD8Quy79K2hjbdIcxQEQQjNpNGfdFHAMnsCsPKAXU0YVhWAO/iQOn7g7Av3iqXTgw/uHneSMsy1BGj2RJ4VAQg/THVqh6emr3dVAHaes6U/gWcDFPt1ohKA+AmkZmT5S158Y0jb3cni/LwFBbUDh+gGYtwBwuWIdjGp2AQgAHxzYE/Tc+w+EhcEQUg3po755Hlm/Cm4AAwhDBFmZrDiqR0R33zPxEteEgunFx/2GacrmH9HJXEXeUYwgiBkhgLuO+eJmQ9HoQdsiL95W24nk59ChIVoXBKAHzJ4Zr2mLV/L701GMgdBt5mFp7HJI0G4GZZnUUPPAtrwgkmg294a0vR5aYqCIAjhmTbko1pmVsZ/Ae4Q9PEu2xeAAE0dOOmi4WLd9IMBWt3n3lcA/DG4yLP42LfSsQRedM7jM689vD2wK8vAdJ6z+VZifhLxXdyEQfSKAp23bEDLS5cPaJWf7OIPAJYMavbt0iHNb9M0OpEI8wH446CjTQb/n4g/QRAEawydfvEhwzSuBehzu+sBBvvMwFM7a5eMFsumJwQwZWXeDqalIQSPjXGewODlhwJZf6ZKf3ZcoOXOK7iW2cwH4KtaCgcuFVq9fEbA4GUDWn6Y6kHRZcaWkxSpyWDkhQ2dMDaLtDg9MfV7a2jTx6QJCoIg2EPX38uuW1JrPoH+WqXPtfwiCPzE5vCBky6ZJdYUWNfVxwVlOoHHElhVHtgt5gEyEU39eeem0b3z8w2HVdlROs/fdD6Z9B4O7+nrugCkrQwee9GOFv/UdTLTKSi6zCy8SjHPRsilZKLLAyTG4LeGNpspzU4QBCF6poxafSkRPQLgcot5gCaAl8g07x84+RJZgUGowid3jmpvKHqIGNcC5du3RnoMzMQrNIPGdnhy6udhVELsdJpd2FZTgY8ZaBpatDmWB2gS0fSMAxkPLBrVZF+6BkTurHVZZNYbB/AoABkhXWs1D5B49JLBzSdKUxMEQXCGqaM/PRswuxLQGczHE5BT0V8fJKCIYK41oZb5DFo6YMoFG8ViQjhW9x3RjljrzsSdiflUAE0AzgZQSuBigH5kmCuVoqXnPTbl23DnckQA9niquF7poZLVRHRqGNHmlADcQuDblg1o9W8JhXK6zNh2hoL5DICzrQjAYJ5gkL50SFNZZ0oQBMFlJg9fU2fElDMPiCUEJ1hz6/A6Z/5riu14cmB5FqYu87YsZOAGCi3aHLkcE94IMP/t3Xta7RCXV6V8NrDOJIAG2hWADJ62dEjzYWJFQRAEQUgPYhaAnedtGgWmCSFP6IwAPATiIcv7t1ogLgtP15kFt4JpPkB1LAlAwvQlg5sNFcsJgiAIgghAS3SZvakjK3oHgBb2hLG9dFxMinss69dqtbjLGnnTC84xiJYBlBNeAPL8JYOb9Qe5v12SIAiCIAjeIep1ADtO39iAif5ZWfxFxrbO2AiFy0T82WPxkBZfaBpdSMD6ULqbQc+ct6fZPSL+BEEQBEEEoGWyMjMeA6GNe0WjT0xNu3B5v5Y/ipuiEIEDmm0MsHY5gBpvARHw/Pl7cv4v3ZbOEQRBEAThiBawT6e5m24h0HOWT2o7D5CWmodU75UjmslbUjHSeXpxc42MD8A4vtz69MqBPTk3y/6+giAIgiAC0DJ5CwoalwXM7wA0sXVSy3mAtJTMA39cNrBdqbjHGbpN33a8Cf4vEX/Nav+1YltBEARBSG9sPwIu8/PMcOIvMmFTzt6st33XdSJQnGXJkKY/m6yuEPEnCIIgCAJgcwaw07xNuRRiY+KIJ43wGJiB90vrlHVedXvbEnGLIAiCIAiCe1ieAey1cG0mMVnaIzaK10rX+lTgWhF/giAIgiAIHhKAe4uPGQCgXdRXCj3XuJNMo+eSfsftEncIgiAIgiC4j6VHwJ2f3NQQJbQOhIYxnbjmY2CDibqv6N9iubhCEARBEAQhPlibASyl++2IPxv68z4Rf4IgCIIgCB4TgNfM/q0FA33snpgj//39ejnNJ4kLBEEQBEEQ4osvokLU1DgwajlyNSpXfgzsVibfkt+bDHGBkBYwU7cJexoc/ueSMQ0k5zVFuXVyYR0jUJqp+bLK/iWL2R9B19dmlpQYdQAgO1s7oOvty8QqQjQs7LVQq93YXx/YAza00rzH+x4Uq0QnyUJy9YKCNprfXAdCpmMnZwBMf1s+oOVTYn4hFeg1t6juof3qVFLm6QQ+laFaAWgBoDmAHAD1arSBoxwEqAgwCwEqJmALE34k5h8Mg386rzTnF9myz4Mi76GCUwDjUo3pZJNwMgEnEbgRgAZV+j5mEHAQQAEYhUT8CwjfKmCtZvg/eUz/fVGq2GTEuO/akU+daZo4iZhPJXBrADlU3g7ql9uFq48PewAOlNuGfgHzLwD/Soz1zNrq8eNP3SrRln68p7/n21m8+QwQn03gk6FwMky0IuKmYM4hQAP4SDxR+czSAQKXAbwDwG8K/CsYvxJ4Iyv68sC2Y7/rnd9bJp2sCsDO8zZPBzA4mnVdwgjAd5f3b3kNiFjMLyQjPWZsa2qWUUcF6sjEVwA4uWq4W3i3ynr07wawGsDHzPShUWvXB7KYdwIE3+TCOlxqXkvM3QnoCHCz6p4OIm4AMCr3dFTN+Qr4jpneY/Dre09psyqZnooMHbu+NSkjj4g7AXwRld/slNeTj9YzOhtVfA/8CvBHROoDw1CviyBMXRYO+dfvyaSexNQJ4IvAXI+OxEEVoVfxb0aVv3OQY4/8hkHAPgJ/BjJXs6lW7N/e+IN0F4QhR6qO0zc2yMrK+A1APbBDF2CUKeD0pfe0+knCXUgm8ibsbAOfcT0z30DARZFVHjklAKuelbAf4JVgLMnyZb2RP/SYneIdl2CmP48vuBom3waiawmoe9h3IYVMsAjgYN8HFUfFYDxnsjbvKb31ei+apP+Y7xtlZ9CfGbiNgHNC1t2WAESlATysPQ2w+T4UveT3I3/ChDMkjSLJeWHQC001pluJ8Vcibo+aoq2m0ANAXFUABv9N+HMxeJtivAYy8lfn7PqPrutp96Ql5CjVee6WkSCeGMtgFeQC05f3bzVUwl5IBjrq7KtTt6iHAt0DoGO18SjapgUH21QpGG+yxs9kt2myMllzantO2DmamM9BsIGfw72pZla38tev3JvzcKzluXVyYR2jhG8j4oEEnFxDyHAEIRO9ADxSMWJewoz7n9DbfuUFHw25b117kDmKgN4Ezookfo8O0hZtFGamNMRv9xN4QcDMmOqlWcGJIz+oRyrrKWUhXtWRKnLInmPwxAt7x1qmBaPePobNjCeqx6KCWeXaBLPie65SZphH7R4w/APunNlzW6xlemnAS2eSolEA3wDmDKtC74j/bQi90LODfORGhQg/MHiaqeHZrrMHeuoJy4d97/sHCHUIAMwQPgraXmoeyz4aeP68yYWH/x30JZBeC1nbu33LPQ7XY0d2mf9BkRWC1+k0ubBOJqgfqHgAQK09XNQsEHqTSb1LN27fmDdx+5TsjEP/yB/a+lAy2ZvZvASg7pU7L6702Qwzc1Rt4GwQSzn+qm/MLs3IHmCWmqMp4rJXFJuKD48CKI8I3frovyw04R/xpN5ucyJ8M0z/8WST8QhgXkt8VLME8xPX8I0bNjpyzroADfNRoP/fx37zNGWo+3S9fcJnwzUjO8tU3IuDxmtVe3Clr6javSE5aDfTqJ0F8veianefh+XCYTEELi+MWUmAV29rmtJGx1KWFwa9coaC+SiAXAYTAQARwGyprfGR8lpvlxyyz6Dyqery6p9MwOM+gx9a2W/mtIBGMz0kBK8FcwNUk3xUqXZ0pJYMrua3yhGnlRr3ovpNSHX27NiSC6C11ckMS508MPONIW13i7wQvErurHVZ3acUDcoktQFEkw63AVeGeXL8jG0JPLfUn/1LjwnbR3bUN2anhFMoDtdgpj89svW2Mi37R2KeBFQXfxSXOjCqD9FQINykyLe274O/9NN1VvEy+6hRG44Z/Pd1U03gawB/RMQlwyhRzs9mcD/4A9/p49bc4Jmbmpq+tPzZ/fZEocboIHZ3xq/PDn8t54XBrz5B4C8Y6AqLKTQc0j6hy8jB6kPh68NHu4KmYEzMCJhr3rl7+tXJ2RGS5d8EbdTEuNPh5rC3Vpl/tkgMwat0n1ycp5U1+BHADABNYx/jEvaOUw4IE+vXqvd93oQdvcFMqeu12Kt260OFbf/0SOHbYPwThDbhzsmVLmt3UK/5mexESX0wz91KG1fe9fCmlm5bdYi+vktptvEtwEPBlBE3sRfDaRloyox8fezXr+n6lw0ktiOfj4PEoxs8N/jVG3wB81uA/wZAsyLkOAqbcJVDyJI9OLRtTmKmt9++a/oL7w2e7ol44jDiji3ejEQUgN3nb2qJcoXuXKGZ5srsn+BJ4Tdte8u8KUWvgngRwMclQ5ktiobfEfHLPSbtXNVjYvFJ6TAg2pXcN47fdndA8ddMuMq5mRlycTCnq9gIrLn7gV+6uSL8hmyqNfjvPy1gmEsBtHLSZRxiQIpdSFc9J4Ovg1999NC4NW3TV+yFvxZbvi5VuuGxX8Z/9n+t0fODXnuRgHwATazUt4YgI4pgMnv1YcsC88gNyc2BEnz6dp9pp3szVCimOKshAP2gm2BhgWgbHDQ13wyRGoLnxN+U4lvINNdy+SOuFNVHfDlAX/WYuH1MR519Xq9GqNkxJx+d/VXfmH3zI1v/SczzcPjNXq8N3BTyH40YvOiuBzeOdPJyg8b9cJJZ/9BqBvpw1XdwjtqaohFo8X80zMApBmP1g2O+vigpGirFs22FF3qRH71a44Uhb+RpPvUtCDeFq+SR6xBZthtHnD0P9cpViGMpor1+Txo+fqfv1Bu9OxFAFusbQQCC0dvhvu6JlXc3S5nFToXk59rpuxp0m7LtBYCfY+CY2DpPL9741yhtNoDx9bN3fNB1yq7jks5hDtrplombW5Vk1Povg26LayHI/oFhhJUCY+Jd+s9zncgLHKhv6Mo+7VOAzvBeQEe92lKOqXilPvaLcxMVr07NdLpTPrLWc9j0q67r6l9D33zQZH4TVL5WZtVTkY2bg0iPOSPnKkaVBxjsvIw6IHrx3b7T7kpcB0iOt8UqnUeX+Vt/B+A8B0tuaqymi+QQvELXSUVn+Q3/lwS62f0xzmNrnRMu0Azji54TivNSx6PWHXLzg1vb+wMZHwM4N+ZzupQHyPaq3q+QNj4diwgceP/6AYC5CFxtt5pEiT1nT1sX0N56aNw3J6R6bEd7vtB5gPav/Q/9vewT9p71KpjvA1VdGN/Wo9egZbNWLq7SNmPLAwymmpl43rt3Tb0zURFhf1Y9vHis0nGYpnmDk1FH4HeW3tPiV5EdghfIm1zUWyl8QMDvkr0uHHWbREMmerPnxO1j02lA7PVw0aWmpv5L4FZB89HI7ZkZ12bH/lKEjTOj+fUAfd0DIJ4FrpyY73AOY8jHa+7lAVb7vqnBxvLxY/7XKL3EXoSR2fJ1reUBPjdgaX1tz77lYLoWIW5urNbX7TxA62052LFEAB575+4pf0l8qFh/7Bvqb1UEIBF3dbKcJtTTIjsEL9B9avHfmfASgDopW0nrYwgx8HDexOInvJgX6HQeYK/x2y4i4uUAjk2qwZwsDpiEe/rZzAm8R18/GaD7rQwYTuUBcuJs/PsAZT7N8Mob8YnIA7TogyjyABf2W1jX8AVWALgi6BIsESppPQ+wptiPJg8w6KPkEI+Hg0UMA4qYnni7z5RLvXWzb/9R8REB2HFuUV0AlzjYr+0vq132pkgPIZHoOqu8qYWzwKzH2s0meR5gkEvT3+rV3vFaL50zU9X/vR4sPJ0YS5wR/jHOjlFsB4YTWcw8/m59g6V1ywbo6x4gYHg4QeetgKaYL8lEPR4c91W/uA3YHssD5DBCr7oR7eQB/kN/L7skq9ZigC607q9o8wAjLY8dex5gdYEZ5tgMpZD/7l3TWiIu2MnZDFaHCAIwE/4rAUcHgqWrbm9bIhJESNjgv5C1z+sV/ZNBAxJXCva0jYiRV1p7x8I+CzjD2wW1/8c/PlLcnDSKcuaPbB/iRh6gjejRQPR8n0d+aR7uoHseWD+Aw8z8eULsuXVTxDTlwfu+ap/evaKNR68WHEF7DzzBQMfIl3IrD5BCCnA7+XIcncBsBjJfXdhLz4y//5zJAzwiABWZ1zg77NFrIkGExOkuppLfip5i4M/xnpBIOmnJ6Llt144Xey1kLZkHsMp01NmnwXyZgRaRhVj0eYCc8MCpcs4cX8CYG+rI/vqGrmBMj3vQU+Q/OJcHGOzzkYE9m02e551HwYntWIK/9Wq9XP8cumQogD+HTlWINQ/QwrEx5wFSbD5hXNC4UZ1RcfebQ3mAqpIhLnawjAHTV7JcVIiQKLpP2zaDCUcTdYnTo+JRjiFMuL705x1TPaPfQ3RqVoVYk6zt40G4LHGDbHzzACv149f103+usSXaPfrGkwn8AmrsxGCt7G7kAbIrNo44oF/+4Ng1vT3ZUOOaB0gRDqMwogN4evDicxh4NFjBncsDpLA/i3ceYM0biiPnHPuffhNP8UZfYi+IfACQt6CgdplhnGH5/JFb7qfv9D1hj8gQIRHkTS0cy6CBbgmTCE2shIEvCPwNmNaSRr8y01ZTM3aYZb4yZWoHfJlGXT/MWsSop0zUBaElmTiRCe0AnAjgLDiyGDvDZo7aoB4Ttv+4aHTj+cns/z8+XHghmIdZ7axsWPMXAn9OrH4gmJuYsJOAQyaUj8jMAFN9BW7BRG2IuR0DHaj6QtOWixT5wMrerfZ50oBZ6xbPHtiuFACGTNtUq2xv2UKAjjk8dB09nqpsHh/qnBbYAdAXBP6OQTuYzR0AdpKGvTBVHQKyGGZDENqAqTXAZwB0IiLuMWzRHnZcTTRJ1z9brOvnHnRdb3G5UKlpd2ufXe276LC64RpG5Er/omriYqG+MHP/Xu256iljNY8N5y8CmCt+U+XYAIi+J+Y1AG8AaDMT9pBJJYwAFCPbVFxbmdwQio4D0AqM0wG0O6riOHzdqbKi5XA3U5XmFcMdS1kGq8d1Xb9C13XTvXHHQt2q2b9qHUIIwFJ/4FxSh/d8jD38mPCuyBAhEXSftu06ZjwU5/mq3wC1kJWxfP++Qx+u0iPmvu4K98ceE4vrmQodyaSrQZwHIH7bWhFm9ZxU9O2bI3P+6znnhu2vy//YUWefpoofsy4sIlyQ+UOAXjR8WPLSmOa/2Pl1r4Ws1Vq3ub1mUjcT/EdVsf5gzcH+cGftmDhoG9ip+gOYBgBle8umAjjdEfFUlR+Y1fMALZn20O+/sjvNruvr6pcEyi4mhR7M6AGg5dHZGHYvfZa5jVbmuxuAazPebok4txtSTaFR89iD++oOJuAU1LiBCHLeKl/VFJgV7AbjFSJeDL/2797zeu+3W6OlA56rX4ay8wHOBaM7AydWaMyI9aledw77YDiECGNcekVhnd4AXoqf/2zd9VQcm1VzvrDLvE0jGJhkeRqRI7Uv6rTynpZvixwR4kmPydvOMBU+RKjtvRxK/aHDd6rA6wTMWTSsyX9B7jxj1nVWn9ct7gyT+qF8j24Vojwh2mdUdd6UlZFxVv7QY3bGxW+Pbl9MoO7B61XtgRWHfpBF4C0gfAVGN6rUM4fLSgr6jiEjAOB5k3niy/e1+N6pet7x4OYzmTAIbN5CQGbYelYtT8ispZDfMwq1hsbvAjvVZQpYiSMP9jj4bzmC3Y+cgBmMJTAxafpDJzl2k9CrF2snnPJ9D2IeAOBK62XiynW2biPGZs7MOEHX25c5GctThn3W2Mjk4iPX5SDlDOdLrlrHIRMvjLnTmj/8wxwmc1v59Sq/7sAVsVX1OzrSbmp+z+CXiNGNwPUqP4SlCOeqcWy5v75nxsTSvftevv2Z2x19YfT1AU+erwF3wuQ/EVC7Rt25kg0ql5erlfFIWavWoeYDaAaA73fsOO703vm9DSfr8kHfv+8CuEH161WNl8rl4Grt5ejfDENrd/FTE9ZXmQFk8GkO3q9wmb/sU5EjQlzF38TieqzM1xBub1diJ0SgCeBZTTMeeGNIxYzQcPfqpetkAlgGYFn3SUXtCPQAgBvDznDF/uSzdWmZ/0kkeI/kKGbHWhKXzyKFPz6sgVZobA567r6WPzpdn6fvb7UGwB236Zsn+JQ5A0Cu/Qkby85tFthFfQg0OLqgDzqb8z821JAZD7X72Gnb5OeTAeB1AK/fe/+3nZkxFUCUb+xasBGhFfnLbgbwT0/NxB2etnL5mhHbQZDHwxUzYzfZmhkDgswOUgEBo3889pvn3Xpket3sv30C4JMl/f5xn6n8Y8HoA1Bm5b6k5ixt6JlCrjQpXTV1girfmJzSpNHGmwA8n9jR0PoAoCqOPy2aKZAQrFs1pO1ukSRCPDF95hwG3N7y6SNTmWctHp5z+xHxF0feGpmzbvHIJn8iMs9m4B3rMiqqPuS6HhOLb0n6wLC+uOxeAv7y4tjmXdwQf5V5Vm/109P3t+kK4HYAB6PtaMN5mgEQ03SAj7fxlmzQYxgoAfGwY9DuYjfEX3XGP3jaiiyNzgF4atXiRHjpg+yGOA2Ly1hcrXCJ2As45MsPFtYDtL0EC8K+aPLkoUzfyTfPuP5fbom/ynSbd3th3pw+A0xTO4OBj8L5Jdg/rW9Dd3jOTY1z5y1zCvvyDoctU+jiqF4LWWOmUxwZNMp/+7nIESGedJtWeBOA21y8xCFiDDp3f5PLlg5t9k2i67toRNOv3xrRuBOAOwG4+LIVTe01bU9Dbwm66O9Mw/zqOzbpnBfGNn82nlV5+v42z5CJCxjYHO0bzxF6as2yjSikcbYQ0SUz9JOmVcxGxwVdb182/uHThxPTdQAdcukyp+v3rjnHrSB1U9DF3m4cWIIl6A1EyLebD4DR+5YZ19/5f5N67ot39XvO/78fP29ScBkxxgBkxFSf8Jz83t2TL4+fQ2N7Q1jt37XpdwTUcrBg30MQ4sR1kwtziGmuaxdgfG8q84LFI3JmxXMAjNzMiBePbPJkgNVpDHzi0lWalvoDE7zpeWdusk3m5QEt8+KX72u6IRG1eEpv861pGpcB+NlRe5ATNqLPDJjnz9DbfZEoLz/ySPs3iakLA/uiFcbhZjoJ/Kf06S0jLMFiYxHooEuwhF4PcDMBl94y84/5iay9rutmt3l9JzC4R/mNM4WvT0jbRZyFuyMe9Qm+HqC9Gw5lmOo4Z8cl/CCyRIgXfo2mALA+S0W2dlZcUqs2zvfCrF8olo1qtHnfwf1XMPCCC/oIAP9fj8k7z0hU/WJZDzDiunSEOXxis+75oxsmdMmqZ/S2v7DJ1wDlLw9EHrvj8n7pokNU54o5+skFiY7xRx459X2YdCPKX7xy9AaBCDfpOitPNWpy278xbsVG1m3OwCfMxvm3zLjuK6+YN2/uXUsVq2sA7LG180eQ9QCDHse44e0+E45JzM2uvZlBpUyzjZNlUgaLABTi05AnF/4B7MJOH+Vd3ePZbZr0zO+fs9/rdlilty1ZPKLxnwmYgkj3pvZRMHl8ck98BO2sFrx8b7MB+b3J8EIRn9aP+5mBngDKou/8Q3vdzuwYA6v2kO/Gx/UWB73iwvHj2y8jYGTEwci+uVr6/GsuTmBwxikPMMxev6EeD4fcJ9paHiCADw8d0K68dcb1W73WJeTO6/OpScgFcKhGfULkAQYTzCHsUtun1HXuxYpzeYCKido4OWiUZZb9JtJEcJteC1ljRbNcmg6Zu3hYzl1eEQcWRQ6/ObLJCALNdv7k3K3HhKLLvVPX2O6WGXjNbJfT32sufPr+330M0CSnZjpt24gAENaUlqhrn9G9t4+7z9d+JkAfOX1eg/lqR1tLlYEXlWaOyCVxZ7FcYfMA7ezmEUkxEAB8rbK0vL6P5x2ER8mbe9fHYBoaWZjbHWIITOgSv44w+iFQAWjtYIn2yw4gQjw4tLn4NkS9TETYTuyZt4Y1GeDWun5u8+aIRoPgwjIEROp+D6reaH70fh3/wVu8Ku5rNyh9GOCfnDOPLRttVmX+3McnerMP13Uy2VR9AZjO5gHSH9Kn57SW22etfQV5lFy+AskGYn+XWyZ03+V1a3Sbf9djAL1Rue6O5AEyrlnYa6Eje6tH3N83hjxAxYxGDtpzs0gTwW066huzwaxH3weGahr878J6Tfokq/irUGrMB/19QFjj5NwoA1flPbr9vEQPXDHOju1k1v7kxdmtw8we2K4UTA9HHruj2Qc3kov59hnjT93q5fAeP/7Ub0H0qqM3CIQLJg9fU8dj7Tgul+EgojiS8DksOkI8cjxIoDwvPvYNRUBpQ0EosxRDVvMAgYYNG/56fmJudq3PDCoQGjpXpjBJzILgEPXq1ekDoI2jJyX+LaPM3/vzvuRPdvss1lscVGxejypLxMSuaRVhVCLq44gaJwKB7s4f13iL1/3Xmtu8CGCjQ8LOkkgmYNZs/cR3kiG+2TAmhB2M7JsrsyQbFyT65sbReI9wHbb68gdZKVflHYB58G0zuifVSiA95ty5kZkeq1Kf2PMAoWB2dMOH0ecBOi0Aa1yGdos8Edyk10LWGDzY4W7RT+AbX7+31Y5UsdMbI5tuIIcFGwPXXfvort95Y4bE3h+Z6LmFY3MWJoPvdJ0CAB63ItzsfA5jo+/2QhudLLE9fvyZXwBwdGkaZvMMh9tK1c8R8gDdfuRwRMCEfeHDTh5gsAbIr942Le+JZOwvSfNNBmAEF1vR3FUQiOjsBHeEEY/1EXBs+LAhO0G2C2lG7qyCb2E3F42t3EnFc4ok/G1erA+WKv53hhPLqZRsLr4eQFuHO8eJbw1rtjrVYvPN4Y0f7zFp+80ArnCor1EGArcD+LuHum4rDWCPwaWDk8p5xC+DaXysza/mll5B5xSGePmxeIg2+xIB5wQbqSJ/PrKt2ZHvFei0BMWm59pM+QZnbLEOR7aWK8zMpDuTta/sOvvOzUvvnreMibpTta0n7drx6FZzzgnAcOWpuq1ftS3sItRDgZ1cBJr3QnBWtMerO3X/Eo6sN8nMQxwu1/dG5p6HUzPOiE02B6F8/2KHQpfu6LWQNa80HIuzYFOSbXb3yft+t5HBn9jvO2xvH/febL3dymQLbdMXyI/pjefq5wNOT+2BItLOHwQ7K6TWzAOk+5PhpY+wtVL0dGTbUZg8wBqWPWHpgFn1nfMd2XCvtTxABSDDsbhiKhN1J+I0eKRxzAKw67TC0xm40KEZlor/8eBlA9uVpqo73xrddA2AVxwU+q1KN+y8JpG3KDZrsY3KMCNJm+K7LjdWhjLHJKNtJuhn/wKmX0Law/a+wM6vKBBzx0vuXsdeHmDYN2TX1tm0/+lk7ytVrTorAZRWF3qhBHPo746+lptlHHRlZjnim8EWg0kByHSwYEmfQJ9Y2LG+wwOlqnaLrdrEHvZ0u8NVW7Z4ZNOVqR5VhtIecjQelHl90tysMB7J172/mHfwexT1frDB2sEdURbPvf/E/yXvzSr/18Gz1Xl09NfHunrTQtH50vH+3PE8QBrZO7+3gSSn85TbDhDwUSg/chR5gMrU2rjYAGIWABYEoPVQZMUiAIUQkRbbDGCHBZxBwC3OdtB0XzqYfsmIht8C+MCpPoeYeibuMbBVJUgAsKfUH3gqWf12kEs/hhOP70OtB0g0K5njmoCPLYuvIEKm+velFGiemLuUREwvkFPHfnT7tNylqdJXMvjd6LfKC2Y/s6U7/gv2t+CCkCMIQMduNoi9l93m5d7LGdkdj/CKvZ7EsS3b0nx/8TUM5DhY0hVLhjf5PI0C7kkHT9bEv2H7ZV5sOJVjw2Q8v9hD25nZ5Xm93V4GfrOvKSx1wz/Nvf/4fydzRBvE30XxxnNINA0t0nrQsfXWa/mxTDwvpUzE9EXkR6g28gAZrZz1XTR5gGEEIAMO5u1xBoTU7yeiI9apcEf3ViTCtPRyKr8GoMQp+cyKusS9BhY+VxnQgSeSvylG2ls9usbKRI8n9YLnAMigH8Law6ZpTFbNE+3teF/H8u4XwfMAtx8oO5xfnBoYTF8HE3rB+yILeYBELV3rGSz2leHEoyLA71Q8EUgEoKPDnHf6DgdGiua99LVR5Zv2WsgaiHs4WM/fOuzNeSedomrRqCb7EPGlAjuDJa70+M3Kp/ljc75KgbuxH6oP1lbFcJjPfsoofSbZLTN+/OnbUGWx89hQhAau36h4JQ8wbHuK9FjziKD4x8DZXVPqBbq8x+7eAmBHqLpH8ZCzgcv9Q0wCQMHSDKC1UDSBLBFwQqhYO1C7SVSLjpf8VnzR4ce/zvR+9Kyuk5luDiDGYqf6HALOydV31PdwbV9LEadtdspnlQaJj+fee0pqLHpOsLTlmJU8QNPk7HjfpSRseqGG0Au9xFKoXDgmPJuiXeVvTuUBMlEtJ+PH6TxABcCxHBliagDBsX4h5fIAM7h2ND83NL7KwZKyYfIz6RhuTFjl4Ol8mZnGpV5tTMycEm93s0lFTncuBFqROkGNImszaFZEGGWnfi/gWB7g5r9N6fxtivaUWx3LA3R0nWWK4pDI6wDudPBu9VgI6dFPRIOKTgAS0xUOluLDZSObbkhHly4a1eRHAIXO5QGqcxJzi0JhB3sGis7wN/4qFXymEEIAUvSN1VRmyghABhc51XkxsQcEILnYbkL9zX4eoMlInZuImvbYGkzoheuLwnxXy3nfURCxHul3IdYBJKcEYPmq4CIAXW+uyVsqjUnZ/U1HfWM2wBc51UcSeHmaB5eTwuhsT9SoZjy8kzKP+Kl6/xxzHuD2puYJX6bOfaq2xzk95c4MoNf2BY4oHqzkARJSth8lUtvD1d16HiABiMdNRfR5gMr6/r1sJaSainhLuZtH5zrCgGH7jfM69WqfA8DJRvRuWocI4VvnYo3O8mYd6eOUuRU0qdQxcUAAQX2dUvmvzFG9hBAsD9DJZczYw52zE3mAJjJXpWwfyXyosj1iyQMEkUOOjyYPMLKCUwAXOxdZ1FLXWUFwTLSlUh6gqWm2BSARneNUSQnYs29f08/SOdyY4eDjb27baXJhHQ82ph9SxV+m5i91wB6VffZ9SsUzlW/dZW0GNP7LrCTnTEH4PEACivpOvXJ7CneTpaHHl2j3BY5jbFH1D6F/owC1ycGyZX7c/FeZBUwTcWoXnxmwveQQs+nYY0YTWLVKp0BaC0BQoZMRklGW2TYxtyih8wCVgZQROaZBpdbap7XGahJSSgASoTQ5RVj8BSRbuCZbKBqDvkvlPtIgLqlRabJuU3bBh9HmAUaKKx+Bf2MH45YDGW0Ba6/mC5FcTilVKpXFtt84J6KzOVQss+3wvKD71G2fhZpKcAIFu+WiaFp/DA7kek7Gl+YzjgcceKxMztSTgb35YxsVYFxq9AI+ZAQYhiVjVfZoyM9sppYAZDI4UiMheCqtmsuFK8Dls5KHh/BQPnNOVHKN77hiXpSD3U9w5d8c/cwpdhNRow/nw5MEHO5GunLyQJhj4znrzDXKEimOfKbi38gkO6EbaQA8BUE2VBbiHAceVLS7tre0t2grM/H0opMcLEOziv9c7dy9IvQpLrGm2nop7hXwc7LvcBEpSmIRCkrzyc15nFphTT95p3M+UrYwQq/6sZXq8FN6xsdRwRzfwTe0T8KV1UpZfDC0jXAwJ5iZT00zvfUdAyVuirb4zwVyuZQnzgTjdIdOus/u49fOM7Y3A1A7MfIp+UV4fGzDnto/lVntFTkTOhg1w78vlWpnWhDGkT+70WC9eydutXyh7MMm704f4UcRHrLG08/BZ/nCFyv8b3wr+7XY3Hn+5r0AnFnVX1H7dOpelw5s0TtV69ZlxrYzFPEah+J7l+1Qgnl8/PpDduwxcBLpASdonMg7coCrDuoK+5BOVPFnZOeWZqt9aWqcJBFm7pYz/E1h5fYU5voapXwM1bQTVYwRQQRxpT8dFsxcIR2d9GHQMlkVhCHHWCJmwMGkTj4XnA4jaeqjsdk6VCBGEby2dzRQJtomY8fhyljg1dKygwKQHKlSmggcsuXdis+86/jj96elPci7RY7feoAU9DsOdb0Qy8RoYGljqP5WeWIDzO7yL0cFIOyuDRYxLBtds2Dz70U+pcBdkFKtHWtKhM1RNL+cpOvUvSMb44PiRh7rr1NwcIq484nVSCrN702G9Gzxa80cYpBmL5XTxvZhXD4w7Etfv5Klt6kTOwtgfWFoVXHYN46OCQG6ULqBFBh2mJ0TgCZsLzdkKm5svWEm14RE6khLVddbZueAtNyQwcipWDt25DPFacbNq51U+NmjyrNdBiOQRm3GwvqRlIByWdgGzsJ6gIdXrVjtsHLoKJ1uSnSsbZyKbwb9ZltamKpJnBVvmukBJ/zKmYm+I09ZZROVPyX7JvmFmbvltL4eYHrGkhHSTqEFM1OoGwrydIwoAKjfaO9XiPVN1ipnpU7SyaSEAGwVXScSNEx/jkKQHZukdkuiMYtjLBZlpeXYnIQCgdPSHuTt2KKahWNXW7kzeYDpE0oUNsTinQfIYQocTR6gAoD83u3LCPy5Y10Jo1XnOb+m1dvAKcqJjgUuGVFsz2VBXIhgSLTczRQbxKPTjy4PkMV8Cb8JZJu+TEg5beQBpj4qYluMr78oCp9Y+82RmrKiDxwtstJ6SDeQvHSaXJhDgFNrvPkLazdfb/dHpg1xkfx5gO7VwGXblEprSQZSe0Bnhz7HTL1ks3t0eYDp1mbs5QF6Yxu44HmAoQQg00pHC824QTrd5MWXQWc62DWu/7wv+aOIoqz4t3nJA7TJrkRWQ/IAg/lTpsXTXRA7YRsWO9l74zdIHqDXY/mIANT8hz4EcMDBMp2TO+u3E6QxJSvGBZFizMaA+0V0IUQqNTsOr41ZMZV2V/LUU4RM2tsojc0V/o3nMDmIlKa2Cjp7RkHyABFSMJuu+rGmo+zmAR4ZYJcNbFcK4D0nBw3W6FbpfJK1BajLHDsV4ZMof1omY6DXO0reKVaI1+AteYChRzBvdAb7LfuDaggNdvlFkEgjOYfNA0zfx7/hxVa8bONOHmDV5qNoibOBRXf0WsiadN/JRUedfSC+yMFT/i/KCCq1F29J2I/EqQZunZmItkuLEbwpmBMkkr34QgVZ/aOd3S/SLaYipZokIg8QMeUB+qoczL7XCP45AJwSba33FW3uDGCpdEnJQ62GhZfAPJzOzLEFM6GE1b6vogp6pjJyrh1tB7DXWpkd3hfYq1MwNfaRjeoUG7ww2B/ed9NM54YbcV/g1H8RhKI3mBCmbXHaSr9Ida8WQxX/rLwvcHwafXSxXEUArry7WVHn+ZtWgXGVU2Vj0HARgMmFMpHHFvvLSJ0uMT6qSC+wXw7CQae6Z2Kaunh4zgTxbjKKGUGM5aCN0thclYVJTWFz1DBcIftE/AZrY1QxSVDz2Mo3o26279Dj7mG/WitDkAwKynfYjld2mVtwqXRAyRT47NgSPsx4N/rf8g5bbSTs380W4lkh2QckyQO00vbJA36y+dnreYCUeLsmJLAiPDpPnjxAiwKwpMT/MoCD9kM9zFHE46T7Tg66T9t6PkDtHOtYVPQCEFHkl3HI70kEoCCktXiOozAmxw6Kc5nSUejZiSM7S055KA8w0jqAh1k1pO1uBl5ztuTcufP8TedL+HgfU/Et0Qr9IGyv06LpZzFEfLGDVWsp3k2DO3YxgYg7W70WxckJlLSBk5jdL7xkD7KxHiAFWQ8wXmUl2+4Nvs6ayU84Xjam+6R39ja9pm2qBdCfHOwvF+X3JiPq0CEUOlg9mQFMYTEjGXCiBm3ZI81ME1wYR1oPUOKHLQi96se6s4A22ejzyHIZggrAlf1b/xeg7x22ZLfceZsvlE7Iu+ynjJsBNI6tkVT6nvB6jDHzs62hPfwNUPOO+sZs8bKQKkKm6qBOEQZ7yQNMvOCynwcYz5sByQMMLpK9mQfozG+CzwASMRFmOnzvTSZjnqwL6NWIZyLiQQ6ecS+rfW/HcgIVUD872KAz6h5T+2xxtJDMsxAy0+nMoCh5gB4rl6fQLNmGE9oX1HzsG00eYMittsh/6BnA0UdwAHD2vqLN/aXD8h5dZ23rAeAMB4T+4VBbGO3yL4dZNKrJPgKKYuncq2Cw5KEmhcwR4j5JkKIi2ZrQI3GMpfJJHmDoOErOPMCQAnDZwHalTHjM8YZKeOia2b9JPpanek8mMP/dyX6M2XzWoaL94Fzs0QXibJGQogbFHu6bhjzdPuzmAaZz27KTB1j1N+TQ9UOLu8h5gOFR4f6YpbS5APY52xaovlJqmnRE3qHrrG03AzjbuUaC9UuGNP/AkcIp/sLBPEARgKJfUtYGVvIAxXBeFWLeyAOMGDMEVNs/IuUwg4jkSKZjuOm3WOI6/MxgWAG4uG+L7SCa5cK9942d523uJj174smdtaM+M092Nj75SRA5M+6Y9LmDJTu++7TtshyMkHRChkPMLsisp/VB2tERzOo5LT0K9I5QrbozJHmyjN64eaAabTH+NxDR5AFmWxeAAFBa4p8CYJcLMvvZLvO3/k46rgSHOZf9nSwvkWKpmzyY6TOedCxM2PzC2Q7dyBOvexWRM4LdYSR49NjPCUyjPECKXfik+42YnTxA74hWAFmwJwBXDWm7G8AMF8rakE3jhQ4LPsuQbiwxdJ62tT0YAxyNNaJnXr+n1Q6nynjB/mY/AHDsfGBcK55PD0GQ3nd2MmhbMk4a5AHujyiAKcLMUTrPNkeqe6Q8QOVIKTjiQt3B4i5yHqCl0vGBjKkMbHGhLVzUONDsUemQ4k+vhaxpGuYDcEyAM2AQkaM3C7pOJoFXOdjvXt1jYrG8hJS0YkZsYHWgkDxA7waP9/MASV78QKg8QIrwG4pDPDuTB2hJAK4c0ewAMd1rPaRtMbTznC09pYePLwe2Fo4D4zKHW82Lbw3KWed4Y2T1roNDmGb6+C8SAUKyDkpHP0seYI2BjjzoJ8kDTC40q/VNvjzAqAQgAKzo1/JfAD51pdUS/zN3/hZZpDdOdJu59Uow7os19KphgLWHXOnWffSOoyUF7u6wgCX1wPMyR0i7wdcRYRzdZ9Ohx3VJ4UuSWIvWcLbyAB1BuRZb1s9MxMTcH4DhglWPMU1efs1jm9pJgLlLp8mFOcx4HpGXO7cZa/zC0mFNfnKjzBWzimsdHDJat9hXdJNEg5A+mlEG9cSInGRZDxCSBxhByEWfB+iU35zPA7R1y7O8f5tPiXiWS20hRxn0du6sza2kc3KHDgs4IyODXwDQ3OFTH9IUj3O10yLKd7LfZYX70nkWsMfE4pN0nZVXysMx+lM0S+QDJQ/Qu7EV6rFx3NpX0AuSzMfDXh6gFbHmXDxTzG3A9gBg7s+8D6BfXNK7x5mKV+QtKGgsYecsus4qp6TwWSZc5UIDmbZ4UIvf3Cy/xuYrjg5hjHbNDxT3TcdY6Dl1R2smfPpF7e1r8yYV/bWPPA5PkgHIWh5ger/8kTx5gJwwJUrWy5+ueYBkNbevah4gJyTG7OwQEqMAXDmi2QFWRh/X+haiU8sC5vJO8wtzpOt3jk+PLZxDwE1Ohx6ArRll2kS3y794aPO1ANY4eufL/MB1k9MvzgzDnAOgHgMnE+gfhXu2r+85uWhgnl5Q23uSR0i7wddxkWz9c1r5UvIAYzYce8rP9mcGo3oEtPKu494GeKaLNelApn/11XMLTpFgi53cmYUPM3C3KydXPHjRqCb74lMTftzhEzYsU84uW+N18iZtu56AHtW+bsNMM6l2xq89JhbrvabtaSitJhU1owzqiRmcvW1362K4vB7+tIyPqjPtQWdvyU1/H76+s3mAUecAldYyxjDhG/faArXVYH7YZfamjtJRRduymbrOLHiUwGNdah9Llg5qvjBe1TF9mc+h6rqmTjSrm7tN2fbHdAiH68bvbQSocDm8jUH4e2lZ2cYek4ondp1U1CxRA5FMSsTcf4qt7NiDktnXTgm98HmAsi5gdTMlfx5g1AJw1e1tSwD+E4CDNrtxOxzLRCs6z9l8q3Rg9sidtS6r68ytzwM02qWOZZ8Gs18867RsYKO9IH7e6Q6UCE/0nLqldSrHQ0edfX5f6Uuwsu0foT4YI31MG3tM2j4vb/LuttKivDMASR6ghYafhHmA8V3b0W4eYBq2t6B5gJFm4JzPA2RLf4vOSTG9Bbjy7jbfMqGPy3GaCcI/u8zdPC131rosGQoi03napobEdVeC6Gb3/MKD3H7xI+hllZoKm0sRWWiQDQ32vZzK8VWv9vZJBFxt0zbZYNxNZuCnHpO2/6vb5J2nJeieW3D47i3V7SF5gE4UgdI47qzvicyeso31beBiFoDlIrD188yY5XatGBhiarU+6Tzn1/bS6YWm+6xtZ2qa7yMAl7t4mVeXDmr+j0TU761BOesIeNmFdnORr6z+glSMibyJ228FMCSGvs8Hxp810/y6x8Ttb+ZN3HGhtDTRjF6DPW0cShE7Uto3pLB5gK7aydlt4BwRgACww7dtOAP/iUNbOINI+6zLnE0DwSy3wlVaLVPXmYWDTDb/B+AkF6+0yTADfRLbDM3xAEzHTUj4S97UbQ+mlPibtKMTKJaXZ2pkv/Qg8Mc9JhbrCRnEpdVLHqBbhlNxd1BCxV3wz5IHWDUQKHRPGMxeVN3e5KIP7S3/wm6F/Od9z/VTJv4I4Mc4hEk2iGZ2mV+wrNPsQslNAtBpfmFO7qzCtwCeAcDaY8zo4rJUmbhhxdDWOxNZ38VDm69lwnNu1JOB+7pNLRqVCnHRfVJRV8B8E0C2w6f2A3hRWp77HLI8eEseYI2GnyAdFvuSNJIH6KUw8kIeoDU/2neSY/c8K/7WeqfSuBuA4rg0LubOSgW+6zJ3y6M9niqul46xqeusus4s+JtWxt8C6Op20DF4wFtDm3/ihbobUKMB7LMdN5aaE0/oNmXbA0kt/iYX5xHoNSviz27cEOOxRaOa/BjfoVSI9e4t3ezhydw/SpQvKcpwSt88QPZQHqAb28A5KgABYFnfNhsUqAccXqojDNkAjy4rKfspd86WO7y0tZXb5M7ecsn/jt36CQNPAGjievdBmL9scIsnvFL/FUOabGXQeBfre3/etG0LeulrM5NO/E0svoUYr8DqbLCtQYG3KzPzAQiiGT0zUCfLLYMI91RrSPHPl3RuGzjHBSAALOvXajUT9eSqTy9ctg03Y/BTqxtv+bTLnE3XpbIQ7DJjy0ldZxS8AJP+C6BDXLo9wpIDu5oN9FzH79szHcBa187P6HOoXuN3470eXrR01NnXfdL2GVT+eNxB4Volvga/fm/9HfEa0GUcjdUGYqzE2Mhbdrc3G0oJ3KbOizFRMw+w6n7N1Y6lePrTTh6gg+sAhmPl3a3+zWxeC6A0zl47B6DXVjfesq7z7IJBnSYX1kmVcOw2s6BDl1kFzxLRWibc7EiLJEuB9sVBn3bTKp0CXrPJsoHtSk2mWxFpcfrYLHWp0vhrry8WnTt+a5N6dbavIPAgF7udZYtGNXkegkcHdckDrNHwE/TI1ak8QC+I3yOiR/IAbdjN4TxAsnqAPSe5NlP2dv82K2HSjW6IQAv77x1PxDNULePX3DmbH8mdtblVMsZdx39szM6dtfWG3FkFH5iEzwi4FYAWm21s8b3hp9xV/XP2e9VGy4blfAmiSc7ETUiaEOHV7lOKXsyduMNzsdRjyo5rfBm+LwH8wa02xcBO8qm+iZU5IvRiXfg1pUdpBwRaYooqeYBebXPR5AGyS36LLg8wfHl8bhpxxT0t37xmbkEPRebrAGq7Hts1a9qIQfdCYXSXuVs+ZMbLgYDvlXcHN93m1cDrtZC1fVu3dCRot2Af/xHgYyzU0w1zrtc039VLBzcp8npjrb2n+MGD9RtfA+B8d43CN2m+QF73qdumZJT6Z79+b6sdiax37vitTXwZGROZzb+60jMfjTUG4443hzXaJEIjUeKGnTlNCg/YZONz0vtS8IwPw8cVJTiGqFIJOb4CEADe7t9iZac5v+WSosUA1Y9PW6jhEgXGZQRcluELzOwyZ8t/QLyQDPOdZQPbbEh0OHWeXtycVNkViqjj/sLCPCLVwr5hHO3eNijiqxYNaFKQDM0xX29f1nVKQW9S2ucAGrl8uToA/u7PzByeN7XoCQVtWryFUe6sHfUzSs1BDIwAOB5vwM9cPLrxm6moidJDF4qxEmMjb9ndnkgmcI05p3SLo8r1rXw3XFVWBT2W2HVTMajiQXNNv1hVA754mHHlPW3e7zp706WGhiUAEr3nqgbgD2D6AysNXeZsKQDwPgMfaGy+f/6OVmt1nUy3Lt5pcmEdyuL2GvMZrHAeGFcA/pOO5gxw4mK8nK+RoXVe3D+nMJma6tLhLX7tOq3ozwRegmCpDc73XXWYMdiE0T9vcvHLIH4he3+Td/N1KnOrjj2n7DjVBN+FUvOvDNSL05jzn6xDjeO+LqI3Zmu8T83BuzwAvDfz5SVtF38hY3eGMr4+i2yPIzIjnfMA+Wj7sib0qKIlxstN4Wf7EiYAAWDpgNbfXDP7twuVTy0G4xwPDRAtANxEwE0mKaxuXLC/85wt6wm0HmyuI6b1pGi9QUaBafLBOgHj4BtD2u4OPjOzLkv5MmubgeyGJowWBG4FomYKaM2MtgBOB8y2ABS72AdFbxv+iDL93Zf0O25XMrbRpUNzlnefum0EE6bGS1gwkAHiPwP486G6xbu7TyleTGy8qvmy/vPGkGN3x3LuXjpnltYuOs8kdTWBbzDZOO1oQ48L6zQj63o3Ra0Qi4CQmT0nxI1bgivsOS2J0jg/PrQcThlp1eaOzrRZ+Q0dkX3kgt/Cnbfm32rOWiZMAALA2wPaFHSaXHi5qht4hhk3JKitR6IuAWcBfBZAYAKYGcQKGoASn4Yus7cAwAEAhwfGTCp/NAjTAEBGxRSUS0mhLvT7DLxU1zTuyO933KFkbrRvDWs6reu0ojbuvg0bkgYA38qkbg0YfnSfUvQzGF+SwpcA/2BC7dTAu9k0d5uB7N0AQFmB2gpmLWLOMUw0JajjCOapJqh9CYrPBqhWvNaVr9pJ8A5No+6vj6y/I/FelflAEXvBMasIY6ryHMW7OYHJ6Mv0ib/ymIpU36ozgez6UtDVrxttHmACBSAArBzR7ACYe3eZXzCcweNB8MUpD9Bp6lT8Z+1q3m0/TIC+dFCzh0CUEi38/L1Nhn56TFELMHq51w7ZyvOQ40E4nhnXo2JwMgGAFCij/N6BzPKwYKYjtwsMSrTc2a0UdX59WJOfZExKlXFZjCVB6lQeoPgy+LjvTh5g+Fm/2PIAE7NgMhEv79dyMhidACqUTsLJ5m3LEbvZ5D8uGdz8wVQRfwCg62QW1s65BcArXu+7XDF6bPXcZ5Lq+sbwJp+npG3SogcIvx5g2o7dHuoMvLdNnY19gVP+CbAW0i5cwzdkYwkdB3xDsfsx8QKwghX9W72nAuoMMBZ5coAgJ5q3ZwfPTzWFc5YNafFGKjbhz/uS/8DenJuZ6OXkHKASEl+7ATP3rRGNPhYp5e2bhfC7NgjRNC7TVT8FabXkQXvIm1chfEohdv4IcSzcXA/QSuzVXBiavSYAAWDZwObFK+5p1ZMJfVGeV5cg0ZaSfVowDDAm19m189LFA5ptTGUTrdIpUKdlk1tAWOAtee5JCpRpXL5oZNMPvS9/RMgIoUQW2RJi7ClfksSfp2KKbOz1G88bMef2A/bMnrkr+7V6nJR2GoBlyTpoeH0PUyKsZ2VesXRw85H5evu0eLMzvzcZS4Y0vQuEEQ7e5FcYNGVEyQ+aEbjkzdHNvhE5IQipJ5yi35pOZpgj+ZLDiEKnXB9+1o8sls3DAhAAlt/d/JcV/Vt1JdCfAGyTYHMsVPwMTPGX0lnLBrT8MB2tsmRI0ykE3ADC3qTwWPzGnMWBbHXBG2Oa/5I00ZyekxIx24DFWJ4NHu/OSkpsxJ4H6F0/Ki+afnn/li8avtKTmHgyXNhLOD5twjP3Te8x4axlg5qPWDmi2YF0btJvDW36ugbqAOCL5B+PYo4vE8CDHQ42vnbZwEZ7ISTFLZ2VWZpQL4Kk/YBOXvJZxWcv5gEmw6iWAPPYyQN0vv1RlTiONg8wKQQgALzT94Q9K/u1HqkMsz0Ir4ayJafzjUz4ev5oEl+/dFDzPywb2Pw7GQDKWTQ0Z72ZsfdiBs9O4/FxCzN1Wjyyyd/d3PXG3WFVZiaEUMIqWfIAPepfkvirfCMVTR4gx81JseUBKq87YdnANhtW9Gt1A5M6D4S3kn7QcL/9bAG476FdzU5bPrDFazI0BIupdqVLhjUbaDJ1BBDbWnfJlgdI/JovkHXmW6MavyuRIAgi5iUPMHa/cRx8bC0P0N7vVLKYfGW/Fp+v6Ncqj2CeD/AbcDqhP9nnKIjWE3An6MAJywa1eHyVTgFpqOFZOjzn/VpUdhbAjyLBqQZxyAPcBJg3LB6Rc/3r93phdw8HbSOTYmIDTxku9jd82eV2xBJINv1oJw+QEhij9mYGVbK5ZHn/Np+u6N/6OoBPAvNcOLF0THJ3rh8Q6Ma6zZqdvHRQiyeXDWxXKg3XOvlDWx96a1ize8nkUwB6GYmeMnY+D7AMxBNLyThl8cimr4rHk5Po3uKUPMAajcvDeYCcCHsI9n1qMw/QeX85lwfoS1ZHrOjfej2Ae7rN+/W+APtuIfDtAM6pUm/2Qri40sj2AXjJhDl3xaBWa6RZxs7iEc02Arip6+TC6UqpcQB3S/IeshTgp5SmTXhzWKNNqdUFy77ANTs32eqt6nZmCdwXOGZXuOFLm+eUcKpkg8pb4kXeI/jwse73VNHsC5wiAvAwS/odtwvAHABzOs/afCZp+AsxrmdCG88OGtH5yw/mFQw8X88w38wf2vqQyDbnWTqi2f8A5HWbXHgaaTQSjBsBZIb3p6V9gePFLjCeCbCatmxUo83iUSE9BbGUPdrLxEUke/5mgiqkXKg6V9v3N+yx8bn9rXzTY/V3vlRy2oqBrdYAGArmYZ0f23yeMnE9M/UAcHKSzlHsZfByAi1SPv/SCrErxOPGYkSzbwHcljtr6zBfGf2Zie4AcJpH44YJ+ICJnti3f1/+Kr1tSVINgYQPmXAokm1UpAHOBED0RSrFoZaJQ2QgP1LVDxsyuOWODFcpt/i7yfhWA/KDt5yaD8Jq/uPoF2xSzE9Tah2sW1qWUZofXG0Rqj6cr/Q9BRvOncHQskp9MPKD9zcUpH1xCKOVl8kwsDOlxR+Z6wGVTyCAuUacVBVZVGHHCmvS4V78cIfERbGXh95QoDpVX3s4HDPVl6GufG2qIeFLgf1hm0Iq0mnultYa4xoGrgFwGYCWUY/QNm64wpo4+LkOAvQxg1eBsarerl2fpMuOHclAj6lFZ5vgngDyAJxdxbkOzQCS9Vjzg7EKit8IGL5FMtsnCIIgRDXepBOd5m5prUy+kEhdAPAZDLQH0MIdARjCzIxdIPwEE18S8DlM87NttVuu/bwv+SUsvU/uxB2tfFrgSgYuJsIlzNQeDrxUFUYA7gPTJ4D5oanwkWaojxaNarJPPCEIgiCIAIyBbvN+PdbPvlOUSceD0JoIbdhEayY0VsQNmdEQjGMtDPIlAHYTYQ+YdoO4iBibGFTARJvZ5J8V6IdlA5sXi9VThx4Ti+sFMnCSZpqnMNEpYLQloAUDOQCaAWgQ4RT7AWwlQhGYipl5MwHrwPyDoYwflw5r/lvF8wVBEARBEAEYd5ip2/zfagzmB7iWf1X/nP1iICEUHXX21cnaU6/yd+eVHrMnuXbjEARBEARBEARBEAQh6fh/wB5vugJbyi8AAAAldEVYdGRhdGU6Y3JlYXRlADIwMjQtMDYtMjNUMTk6NDY6MzIrMDA6MDCOWCRFAAAAJXRFWHRkYXRlOm1vZGlmeQAyMDI0LTA2LTIzVDE5OjQ2OjMyKzAwOjAw/wWc+QAAAABJRU5ErkJggg==;" parent="1" vertex="1">
          <mxGeometry x="660" y="780.75" width="160" height="59.25" as="geometry" />
        </mxCell>
        <mxCell id="_5_J5Y2If2ce0FDsi1l5-150" value="&lt;font style=&quot;font-size: 15px;&quot;&gt;Gemini Api&lt;/font&gt;" style="text;html=1;align=center;verticalAlign=middle;resizable=0;points=[];autosize=1;strokeColor=none;fillColor=none;" parent="1" vertex="1">
          <mxGeometry x="690" y="850" width="100" height="30" as="geometry" />
        </mxCell>
        <mxCell id="_5_J5Y2If2ce0FDsi1l5-151" value="&lt;span style=&quot;font-size: 15px;&quot;&gt;&amp;lt;&amp;lt;System Actor&amp;gt;&amp;gt;&lt;/span&gt;" style="text;html=1;align=center;verticalAlign=middle;resizable=0;points=[];autosize=1;strokeColor=none;fillColor=none;" parent="1" vertex="1">
          <mxGeometry x="660" y="760" width="150" height="30" as="geometry" />
        </mxCell>
        <mxCell id="_5_J5Y2If2ce0FDsi1l5-152" value="" style="group" parent="1" vertex="1" connectable="0">
          <mxGeometry x="-42.5" y="1650" width="295" height="92" as="geometry" />
        </mxCell>
        <mxCell id="_5_J5Y2If2ce0FDsi1l5-153" value="" style="group" parent="_5_J5Y2If2ce0FDsi1l5-152" vertex="1" connectable="0">
          <mxGeometry x="-20" y="-10" width="315" height="102" as="geometry" />
        </mxCell>
        <mxCell id="_5_J5Y2If2ce0FDsi1l5-13" value="" style="html=1;overflow=block;blockSpacing=1;whiteSpace=wrap;fontSize=16.7;fontColor=default;spacing=3.8;strokeOpacity=100;fillOpacity=100;rounded=1;absoluteArcSize=1;arcSize=162;fillColor=#ffffff;strokeWidth=1.5;lucidId=qHtdmG4HjMHo;container=0;collapsible=0;" parent="_5_J5Y2If2ce0FDsi1l5-153" vertex="1">
          <mxGeometry y="-10" width="315" height="112" as="geometry" />
        </mxCell>
        <mxCell id="_5_J5Y2If2ce0FDsi1l5-14" value="Terminator" style="html=1;overflow=block;blockSpacing=1;whiteSpace=wrap;fontSize=16.7;fontColor=#979ea8;spacing=3.8;strokeColor=#979ea8;strokeOpacity=100;fillOpacity=100;rounded=1;absoluteArcSize=1;arcSize=75;fillColor=#979ea8;strokeWidth=1.5;lucidId=IHtdpJWPwF3h;" parent="_5_J5Y2If2ce0FDsi1l5-153" vertex="1">
          <mxGeometry x="44.04661016949153" y="11.08695652173913" width="87.55932203389831" height="44.34782608695652" as="geometry" />
        </mxCell>
        <mxCell id="_5_J5Y2If2ce0FDsi1l5-16" value="" style="html=1;overflow=block;blockSpacing=1;whiteSpace=wrap;fontSize=16.7;fontColor=default;spacing=3.8;strokeColor=#fe7070;strokeOpacity=100;fillOpacity=100;rounded=1;absoluteArcSize=1;arcSize=82;fillColor=#fe7070;strokeWidth=1.5;lucidId=SHtdkWkZQMI-;" parent="_5_J5Y2If2ce0FDsi1l5-153" vertex="1">
          <mxGeometry x="183.3940677966102" y="11.08695652173913" width="87.55932203389831" height="45.45652173913044" as="geometry" />
        </mxCell>
        <mxCell id="_5_J5Y2If2ce0FDsi1l5-17" value="Already exist" style="html=1;overflow=block;blockSpacing=1;whiteSpace=wrap;fontSize=16.7;spacing=0;strokeOpacity=100;rounded=1;absoluteArcSize=1;arcSize=9;fillColor=none;strokeWidth=NaN;strokeColor=none;lucidId=mItdmbgDk1Mh;" parent="_5_J5Y2If2ce0FDsi1l5-153" vertex="1">
          <mxGeometry x="21.35593220338983" y="56.54347826086957" width="131.33898305084747" height="34.369565217391305" as="geometry" />
        </mxCell>
        <mxCell id="_5_J5Y2If2ce0FDsi1l5-19" value="developed by us" style="html=1;overflow=block;blockSpacing=1;whiteSpace=wrap;fontSize=16.7;spacing=0;strokeOpacity=100;rounded=1;absoluteArcSize=1;arcSize=9;fillColor=none;strokeWidth=NaN;strokeColor=none;lucidId=SItdEPhbv4RO;" parent="_5_J5Y2If2ce0FDsi1l5-153" vertex="1">
          <mxGeometry x="169.24576271186442" y="55.434782608695656" width="131.33898305084747" height="34.369565217391305" as="geometry" />
        </mxCell>
      </root>
    </mxGraphModel>
  </diagram>
</mxfile>
